<svg width="14" height="14" viewBox="0 0 14 14" fill="none" xmlns="http://www.w3.org/2000/svg">
<path d="M7.00008 10.1938C7.64175 10.1938 8.23237 10.0212 8.77196 9.67606C9.31154 9.33092 9.70286 8.86183 9.94591 8.26877H4.05425C4.30703 8.86183 4.70078 9.33092 5.2355 9.67606C5.77022 10.0212 6.35842 10.1938 7.00008 10.1938ZM4.40425 6.2271L5.0605 5.57085L5.71675 6.2271L6.24175 5.7021L5.0605 4.52085L3.87925 5.7021L4.40425 6.2271ZM8.298 6.2271L8.95425 5.57085L9.6105 6.2271L10.1355 5.7021L8.95425 4.52085L7.773 5.7021L8.298 6.2271ZM7.00008 12.8334C6.19314 12.8334 5.4348 12.6802 4.72508 12.374C4.01536 12.0677 3.398 11.6521 2.873 11.1271C2.348 10.6021 1.93237 9.98474 1.62612 9.27502C1.31987 8.5653 1.16675 7.80697 1.16675 7.00002C1.16675 6.19308 1.31987 5.43474 1.62612 4.72502C1.93237 4.0153 2.348 3.39794 2.873 2.87294C3.398 2.34794 4.01536 1.93231 4.72508 1.62606C5.4348 1.31981 6.19314 1.16669 7.00008 1.16669C7.80703 1.16669 8.56536 1.31981 9.27508 1.62606C9.9848 1.93231 10.6022 2.34794 11.1272 2.87294C11.6522 3.39794 12.0678 4.0153 12.374 4.72502C12.6803 5.43474 12.8334 6.19308 12.8334 7.00002C12.8334 7.80697 12.6803 8.5653 12.374 9.27502C12.0678 9.98474 11.6522 10.6021 11.1272 11.1271C10.6022 11.6521 9.9848 12.0677 9.27508 12.374C8.56536 12.6802 7.80703 12.8334 7.00008 12.8334ZM7.00008 11.9584C8.38064 11.9584 9.55217 11.4771 10.5147 10.5146C11.4772 9.5521 11.9584 8.38058 11.9584 7.00002C11.9584 5.61947 11.4772 4.44794 10.5147 3.48544C9.55217 2.52294 8.38064 2.04169 7.00008 2.04169C5.61953 2.04169 4.448 2.52294 3.4855 3.48544C2.523 4.44794 2.04175 5.61947 2.04175 7.00002C2.04175 8.38058 2.523 9.5521 3.4855 10.5146C4.448 11.4771 5.61953 11.9584 7.00008 11.9584Z" fill="url(#paint0_linear_79_76)"/>
<defs>
<linearGradient id="paint0_linear_79_76" x1="7.00008" y1="1.16669" x2="7.00008" y2="12.8334" gradientUnits="userSpaceOnUse">
<stop stop-color="#FEE106"/>
<stop offset="1" stop-color="#F9AB15"/>
</linearGradient>
</defs>
</svg>
