<svg width="14" height="14" viewBox="0 0 14 14" fill="none" xmlns="http://www.w3.org/2000/svg">
<path d="M6.57716 11.1854H7.37925V10.4271C7.9723 10.359 8.43411 10.1767 8.76466 9.8802C9.09522 9.58367 9.2605 9.18749 9.2605 8.69166C9.2605 8.19582 9.11953 7.79235 8.83758 7.48124C8.55564 7.17013 8.07925 6.8736 7.40841 6.59166C6.84453 6.35832 6.43619 6.1493 6.18341 5.96457C5.93064 5.77985 5.80425 5.53193 5.80425 5.22082C5.80425 4.91943 5.91362 4.68124 6.13237 4.50624C6.35112 4.33124 6.65008 4.24374 7.02925 4.24374C7.32091 4.24374 7.57369 4.3118 7.78758 4.44791C8.00147 4.58402 8.18133 4.78818 8.32716 5.06041L9.02716 4.72499C8.86189 4.38471 8.64314 4.11735 8.37091 3.92291C8.09869 3.72846 7.77786 3.6118 7.40841 3.57291V2.82916H6.60633V3.57291C6.1105 3.64096 5.71918 3.82325 5.43237 4.11978C5.14557 4.41631 5.00216 4.78332 5.00216 5.22082C5.00216 5.69721 5.148 6.07638 5.43966 6.35832C5.73133 6.64027 6.16883 6.90277 6.75216 7.14582C7.40355 7.41805 7.85078 7.66353 8.09383 7.88228C8.33689 8.10103 8.45841 8.37082 8.45841 8.69166C8.45841 9.00277 8.32959 9.25312 8.07196 9.4427C7.81432 9.63228 7.49105 9.72707 7.10216 9.72707C6.723 9.72707 6.38515 9.62013 6.08862 9.40624C5.7921 9.19235 5.5855 8.90068 5.46883 8.53124L4.72508 8.77916C4.92925 9.22638 5.1796 9.57881 5.47612 9.83645C5.77265 10.0941 6.13966 10.2812 6.57716 10.3979V11.1854ZM7.00008 12.8333C6.20286 12.8333 5.44939 12.6802 4.73966 12.3739C4.02994 12.0677 3.41015 11.6496 2.88029 11.1198C2.35043 10.5899 1.93237 9.97013 1.62612 9.26041C1.31987 8.55068 1.16675 7.79721 1.16675 6.99999C1.16675 6.19305 1.31987 5.43471 1.62612 4.72499C1.93237 4.01527 2.35043 3.39791 2.88029 2.87291C3.41015 2.34791 4.02994 1.93228 4.73966 1.62603C5.44939 1.31978 6.20286 1.16666 7.00008 1.16666C7.80703 1.16666 8.56536 1.31978 9.27508 1.62603C9.9848 1.93228 10.6022 2.34791 11.1272 2.87291C11.6522 3.39791 12.0678 4.01527 12.374 4.72499C12.6803 5.43471 12.8334 6.19305 12.8334 6.99999C12.8334 7.79721 12.6803 8.55068 12.374 9.26041C12.0678 9.97013 11.6522 10.5899 11.1272 11.1198C10.6022 11.6496 9.9848 12.0677 9.27508 12.3739C8.56536 12.6802 7.80703 12.8333 7.00008 12.8333ZM7.00008 11.9583C8.38064 11.9583 9.55216 11.4746 10.5147 10.5073C11.4772 9.53992 11.9584 8.37082 11.9584 6.99999C11.9584 5.61943 11.4772 4.44791 10.5147 3.48541C9.55216 2.52291 8.38064 2.04166 7.00008 2.04166C5.62925 2.04166 4.46015 2.52291 3.49279 3.48541C2.52543 4.44791 2.04175 5.61943 2.04175 6.99999C2.04175 8.37082 2.52543 9.53992 3.49279 10.5073C4.46015 11.4746 5.62925 11.9583 7.00008 11.9583Z" fill="url(#paint0_linear_79_80)"/>
<defs>
<linearGradient id="paint0_linear_79_80" x1="7.00008" y1="1.16666" x2="7.00008" y2="12.8333" gradientUnits="userSpaceOnUse">
<stop stop-color="#FEE106"/>
<stop offset="1" stop-color="#F9AB15"/>
</linearGradient>
</defs>
</svg>
