<svg width="30" height="40" viewBox="0 0 30 40" fill="none" xmlns="http://www.w3.org/2000/svg">
<path d="M13.9796 0.968788C13.852 1.00525 13.5969 1.0417 13.4082 1.0417C13.2092 1.0417 13.0612 1.06254 13.0612 1.09379C13.0612 1.12504 12.9184 1.14587 12.7449 1.14587C12.5612 1.15108 12.3673 1.18233 12.2959 1.224C12.2245 1.26566 12.0816 1.29691 11.9796 1.30212C11.8724 1.30212 11.7857 1.32295 11.7857 1.349C11.7857 1.37504 11.699 1.40629 11.5969 1.42191C11.301 1.46879 10.9184 1.58337 10.9184 1.62504C10.9184 1.65108 10.8622 1.66671 10.7908 1.66671C10.7194 1.66671 10.6633 1.68754 10.6633 1.71358C10.6633 1.73962 10.5816 1.77608 10.4847 1.79171C10.3877 1.81254 10.3061 1.849 10.3061 1.87504C10.3061 1.90629 10.2398 1.92712 10.1531 1.92712C10.0714 1.92712 9.99999 1.94796 9.99999 1.97921C9.99999 2.00525 9.95407 2.03129 9.90305 2.03129C9.84693 2.03129 9.7704 2.06775 9.72448 2.10941C9.68366 2.15108 9.60203 2.18754 9.54591 2.18754C9.48468 2.18754 9.43877 2.20837 9.43877 2.23441C9.43877 2.26046 9.38264 2.29691 9.31122 2.31254C9.23979 2.33337 9.18366 2.36983 9.18366 2.39587C9.18366 2.42712 9.12754 2.44796 9.05611 2.44796C8.98468 2.44796 8.92856 2.46879 8.92856 2.50004C8.92856 2.52608 8.89285 2.55212 8.85203 2.55212C8.81121 2.55212 8.7755 2.57296 8.7755 2.60421C8.7755 2.63025 8.71938 2.66671 8.64795 2.68754C8.57652 2.70316 8.5204 2.73962 8.5204 2.76566C8.5204 2.79171 8.48468 2.81254 8.44387 2.81254C8.39795 2.81254 8.31121 2.86983 8.24489 2.94275C8.17856 3.01566 8.08673 3.07296 8.04081 3.07296C7.99489 3.07296 7.90305 3.13025 7.83673 3.20316C7.7704 3.27608 7.68877 3.33337 7.65815 3.33337C7.62244 3.33337 7.54591 3.39066 7.47958 3.46358C7.41326 3.5365 7.34693 3.59379 7.32652 3.59379C7.30611 3.59379 7.23468 3.65108 7.16326 3.724C7.09183 3.79691 7.01019 3.85421 6.98468 3.85421C6.91326 3.85421 6.7857 3.98962 6.7857 4.05733C6.7857 4.08858 6.76019 4.11462 6.72958 4.11462C6.65815 4.11462 6.5306 4.24483 6.5306 4.31775C6.5306 4.349 6.50509 4.37504 6.47448 4.37504C6.40305 4.37504 6.2755 4.50525 6.2755 4.57816C6.2755 4.60941 6.24999 4.63546 6.22448 4.63546C6.15305 4.63546 5.66326 5.13546 5.66326 5.20837C5.66326 5.23441 5.63775 5.26046 5.60713 5.26046C5.55101 5.26046 5.40815 5.39066 5.40815 5.44275C5.40815 5.46358 5.37754 5.51046 5.34693 5.54691C5.19387 5.71879 5.15305 5.78129 5.15305 5.83337C5.15305 5.85941 5.11734 5.88546 5.07652 5.88546C5.0357 5.88546 4.99999 5.92191 4.99999 5.96358C4.99999 6.00525 4.97958 6.04171 4.94897 6.04171C4.92346 6.04171 4.89795 6.07296 4.89795 6.10941C4.89795 6.14587 4.84183 6.23441 4.7704 6.31254C4.69897 6.39066 4.64285 6.46879 4.64285 6.48441C4.64285 6.50525 4.61224 6.55212 4.57652 6.58858C4.42856 6.76046 4.38775 6.82296 4.38775 6.87504C4.38775 6.90108 4.36734 6.92712 4.34183 6.92712C4.31632 6.92712 4.2806 6.98441 4.2653 7.05733C4.24489 7.13025 4.20917 7.18754 4.18366 7.18754C4.15305 7.18754 4.13264 7.24483 4.13264 7.31775C4.13264 7.39066 4.11734 7.44796 4.09693 7.44796C4.04081 7.44796 3.87754 7.75004 3.87754 7.84379C3.87754 7.88546 3.85713 7.91671 3.83162 7.91671C3.80611 7.91671 3.7704 7.974 3.75509 8.04691C3.73468 8.11983 3.69897 8.17712 3.67346 8.17712C3.64285 8.17712 3.62244 8.23441 3.62244 8.30733C3.62244 8.38025 3.60203 8.43754 3.57142 8.43754C3.54591 8.43754 3.5204 8.49483 3.5204 8.56254C3.5204 8.63025 3.48468 8.69796 3.44387 8.71879C3.40305 8.73441 3.36734 8.80733 3.36734 8.88025C3.36734 8.95316 3.34693 9.01046 3.31632 9.01046C3.29081 9.01046 3.2653 9.07296 3.2653 9.15108C3.2653 9.23441 3.22958 9.34379 3.18877 9.39587C3.14795 9.45316 3.11223 9.55212 3.11223 9.61983C3.11223 9.68754 3.09183 9.73962 3.06121 9.73962C3.0357 9.73962 3.01019 9.82296 3.01019 9.92191C3.01019 10.0209 2.98979 10.1042 2.96428 10.1042C2.93877 10.1042 2.90815 10.198 2.88775 10.3125C2.87244 10.4271 2.83162 10.5209 2.80611 10.5209C2.7755 10.5209 2.75509 10.6615 2.75509 10.8282C2.75509 11 2.73468 11.1459 2.70407 11.1563C2.67856 11.1615 2.63775 11.3177 2.62244 11.4948C2.60203 11.6771 2.56632 11.823 2.54591 11.823C2.5204 11.823 2.49999 12.0469 2.49999 12.3177C2.49999 12.6146 2.47958 12.8125 2.44897 12.8125C2.41836 12.8125 2.39795 13.1875 2.39795 13.8282C2.39795 14.4219 2.41836 14.8438 2.44387 14.8438C2.46938 14.8438 2.50509 15.0625 2.5153 15.323C2.54591 15.9011 2.64795 16.5625 2.70917 16.5625C2.73468 16.5625 2.75509 16.6771 2.75509 16.823C2.75509 16.9636 2.7755 17.0834 2.80101 17.0834C2.83162 17.0834 2.86734 17.1875 2.88775 17.3177C2.90305 17.448 2.93877 17.5521 2.96428 17.5521C2.98979 17.5521 3.01019 17.6459 3.01019 17.7605C3.01019 17.875 3.0306 17.9688 3.05611 17.9688C3.08162 17.9688 3.11734 18.0521 3.13264 18.1511C3.15305 18.25 3.18877 18.3334 3.21428 18.3334C3.24489 18.3334 3.2653 18.3907 3.2653 18.4636C3.2653 18.5365 3.29081 18.5938 3.31632 18.5938C3.34693 18.5938 3.36734 18.6511 3.36734 18.7188C3.36734 18.7917 3.40305 18.8802 3.44387 18.9271C3.48468 18.9688 3.5204 19.0521 3.5204 19.1094C3.5204 19.1719 3.54591 19.2188 3.57142 19.2188C3.60203 19.2188 3.62244 19.2761 3.62244 19.3438C3.62244 19.4115 3.65815 19.4792 3.69897 19.5C3.73979 19.5157 3.7755 19.5782 3.7755 19.6355C3.7755 19.6927 3.80101 19.7396 3.82652 19.7396C3.85713 19.7396 3.87754 19.7969 3.87754 19.8698C3.87754 19.9532 3.90815 20 3.95407 20C3.99999 20 4.0306 20.0469 4.0306 20.1302C4.0306 20.2032 4.05611 20.2605 4.08162 20.2605C4.11224 20.2605 4.13264 20.3021 4.13264 20.3594C4.13264 20.4115 4.18877 20.5 4.26019 20.5521C4.33162 20.6042 4.38775 20.6927 4.38775 20.7396C4.38775 20.8646 4.66836 21.1459 4.79591 21.1459C4.85203 21.1459 4.89795 21.1198 4.89795 21.0938C4.89795 21.0625 4.98979 21.0417 5.09693 21.0417C5.20917 21.0417 5.33162 21.0052 5.37754 20.9636C5.41836 20.9219 5.5204 20.8855 5.60713 20.8855C5.69387 20.8855 5.7653 20.8594 5.7653 20.8334C5.7653 20.8021 5.85713 20.7813 5.96428 20.7813C6.07652 20.7813 6.19897 20.7448 6.24489 20.7032C6.2857 20.6615 6.38775 20.625 6.47448 20.625C6.56121 20.625 6.63264 20.599 6.63264 20.573C6.63264 20.5417 6.71428 20.5209 6.81632 20.5209C6.91326 20.5209 7.0306 20.4844 7.07142 20.4427C7.11734 20.4011 7.22958 20.3646 7.32652 20.3646C7.42346 20.3646 7.49999 20.3386 7.49999 20.3125C7.49999 20.2813 7.59183 20.2605 7.70407 20.2605C7.81632 20.2605 7.90815 20.2396 7.90815 20.2136C7.90815 20.1875 8.01019 20.1511 8.13775 20.1355C8.2653 20.1146 8.36734 20.0782 8.36734 20.0469C8.36734 20.0209 8.45917 20 8.57142 20C8.68366 20 8.7755 19.9792 8.7755 19.948C8.7755 19.9219 8.86734 19.8802 8.97958 19.8646C9.09183 19.8438 9.18366 19.8125 9.18366 19.7865C9.18366 19.7605 9.2857 19.7396 9.41326 19.7396C9.54081 19.7396 9.64285 19.7188 9.64285 19.6927C9.64285 19.6667 9.73468 19.6355 9.84693 19.6146C9.95917 19.599 10.051 19.5573 10.051 19.5313C10.051 19.5 10.1326 19.4792 10.2296 19.4792C10.3265 19.4792 10.4082 19.4532 10.4082 19.4271C10.4082 19.3959 10.4847 19.375 10.5765 19.375C10.6633 19.375 10.7857 19.3386 10.8367 19.2969C10.8928 19.2552 11.0153 19.2188 11.1071 19.2188C11.199 19.2188 11.2755 19.1927 11.2755 19.1667C11.2755 19.1355 11.3265 19.1146 11.3928 19.1146C11.4592 19.1146 11.5561 19.0782 11.6122 19.0365C11.6633 18.9948 11.7602 18.9584 11.8265 18.9584C11.8877 18.9584 11.9388 18.9323 11.9388 18.9063C11.9388 18.875 12 18.8542 12.0714 18.8542C12.3061 18.8542 12.1735 18.724 11.9235 18.7084C11.7908 18.698 11.6837 18.6719 11.6837 18.6407C11.6837 18.6146 11.5459 18.5938 11.3775 18.5938C11.2092 18.5938 11.0714 18.573 11.0714 18.5469C11.0714 18.5209 10.9235 18.4792 10.7398 18.4636C10.5561 18.4427 10.4082 18.4063 10.4082 18.3802C10.4082 18.3542 10.2959 18.3334 10.1531 18.3334C10.0153 18.3334 9.89795 18.3073 9.89795 18.2813C9.89795 18.25 9.82142 18.2292 9.72448 18.2292C9.62754 18.2292 9.5153 18.1927 9.46938 18.1511C9.42856 18.1094 9.38264 18.073 9.36224 18.073C9.2857 18.073 8.92856 17.6511 8.92856 17.5625C8.92856 17.5105 8.89285 17.4219 8.85203 17.3646C8.75509 17.2344 8.75509 16.8386 8.85203 16.7396C8.89285 16.6927 8.92856 16.6042 8.92856 16.5313C8.92856 16.4636 8.94897 16.4063 8.96938 16.4063C8.99489 16.4063 9.04591 16.349 9.08162 16.2761C9.11734 16.2032 9.17856 16.1459 9.21938 16.1459C9.25509 16.1459 9.2857 16.125 9.2857 16.1042C9.2857 16.0417 9.57142 15.8855 9.68877 15.8855C9.74999 15.8855 9.79591 15.8594 9.79591 15.8334C9.79591 15.7969 10.75 15.7813 12.551 15.7813C14.4745 15.7813 15.3061 15.7657 15.3061 15.724C15.3061 15.6511 15.1786 15.5209 15.1071 15.5209C15.0765 15.5209 15.051 15.4948 15.051 15.4636C15.051 15.4063 14.9235 15.2605 14.8724 15.2605C14.8214 15.2605 14.6939 15.1146 14.6939 15.0573C14.6939 15.0261 14.6377 15 14.5663 15C14.4949 15 14.4388 14.974 14.4388 14.9427C14.4388 14.8855 14.3112 14.7396 14.2602 14.7396C14.2449 14.7396 14.0561 14.5625 13.8418 14.349C13.6326 14.1355 13.4337 13.9584 13.4031 13.9584C13.3775 13.9584 13.2806 13.875 13.1837 13.7761C13.0918 13.6771 12.9949 13.5938 12.9643 13.5938C12.9337 13.5938 12.9082 13.5677 12.9082 13.5365C12.9082 13.4792 12.7806 13.3334 12.7296 13.3334C12.6786 13.3334 12.551 13.1875 12.551 13.1302C12.551 13.099 12.5255 13.073 12.4949 13.073C12.4643 13.073 12.4082 13.0417 12.3724 13.0052C12.2143 12.8646 12.1479 12.8125 12.1173 12.8125C12.0663 12.8125 11.9388 12.6667 11.9388 12.6094C11.9388 12.5782 11.9082 12.5521 11.8673 12.5521C11.8265 12.5521 11.7857 12.5261 11.7755 12.4896C11.75 12.4167 11.3061 12.4271 11.2857 12.5C11.2755 12.5313 11.1888 12.5521 11.0918 12.5521C10.9694 12.5521 10.9184 12.5782 10.9184 12.6302C10.9184 12.6875 10.8571 12.7084 10.6684 12.7084C10.5102 12.7084 10.3877 12.6771 10.3367 12.6302C10.2959 12.5886 10.1939 12.5521 10.1071 12.5521C10.0204 12.5521 9.94897 12.5261 9.94897 12.5C9.94897 12.4688 9.88264 12.448 9.79591 12.448C9.71428 12.448 9.64285 12.4219 9.64285 12.3959C9.64285 12.3646 9.59693 12.3438 9.54591 12.3438C9.48979 12.3438 9.42856 12.3646 9.41326 12.3959C9.39795 12.4219 9.31632 12.448 9.22958 12.448C9.14795 12.448 9.08162 12.4688 9.08162 12.5C9.08162 12.5261 9.0153 12.5521 8.93366 12.5521C8.85203 12.5521 8.74999 12.5886 8.70407 12.6302C8.66326 12.6771 8.5357 12.7084 8.41836 12.7084C8.30101 12.7084 8.17346 12.6771 8.13264 12.6302C8.08673 12.5886 7.98468 12.5521 7.90305 12.5521C7.82142 12.5521 7.75509 12.5261 7.75509 12.5C7.75509 12.4688 7.69897 12.448 7.63264 12.448C7.56121 12.448 7.46938 12.4115 7.42856 12.3646C7.35713 12.2917 7.33673 12.2917 7.23468 12.3646C7.17346 12.4115 7.06632 12.448 7.00509 12.448C6.93877 12.448 6.88775 12.4688 6.88775 12.5C6.88775 12.5261 6.81121 12.5521 6.71428 12.5521C6.60713 12.5521 6.5306 12.5834 6.51019 12.6302C6.47448 12.7344 6.07652 12.7344 5.93877 12.6302C5.88775 12.5886 5.79081 12.5521 5.72958 12.5521C5.66326 12.5521 5.61224 12.5261 5.61224 12.5C5.61224 12.4688 5.54081 12.448 5.45407 12.448C5.36734 12.448 5.2653 12.4115 5.22448 12.3698C5.17856 12.3282 5.09183 12.2917 5.0204 12.2917C4.94387 12.2917 4.89795 12.323 4.89795 12.3698C4.89795 12.4115 4.86224 12.448 4.82142 12.448C4.7806 12.448 4.74489 12.4688 4.74489 12.5C4.74489 12.5261 4.70917 12.5521 4.66836 12.5521C4.62244 12.5521 4.57652 12.5886 4.56121 12.6302C4.54081 12.6719 4.49999 12.7084 4.45917 12.7084C4.41836 12.7084 4.38775 12.7292 4.38775 12.7605C4.38775 12.7865 4.36224 12.8125 4.33162 12.8125C4.30101 12.8125 4.24489 12.8438 4.20917 12.875C4.05101 13.0209 3.98468 13.073 3.94897 13.073C3.92856 13.073 3.86224 13.1302 3.79591 13.2032C3.72958 13.2761 3.65305 13.3334 3.62244 13.3334C3.59183 13.3334 3.51019 13.3959 3.44387 13.4688C3.2806 13.6459 3.13264 13.6042 3.18877 13.3959C3.20917 13.3177 3.23468 13.1042 3.24999 12.9271C3.2704 12.625 3.29081 12.5782 3.47448 12.3907C3.58162 12.2813 3.71938 12.1875 3.7755 12.1875C3.83162 12.1875 3.87754 12.1511 3.87754 12.1094C3.87754 12.0677 3.90305 12.0313 3.92856 12.0313C3.95917 12.0313 4.04081 11.974 4.11224 11.9011C4.18366 11.8282 4.2653 11.7709 4.29081 11.7709C4.32142 11.7709 4.42346 11.6875 4.5204 11.5886C4.61224 11.4896 4.72958 11.4063 4.7755 11.4063C4.86734 11.4063 4.99999 11.2865 4.99999 11.2032C4.99999 11.1719 5.0357 11.1459 5.07652 11.1459C5.11734 11.1459 5.15305 11.1198 5.15305 11.0938C5.15305 11.0625 5.19387 11.0417 5.24999 11.0417C5.30101 11.0417 5.38775 10.9844 5.43877 10.9115C5.48979 10.8386 5.55611 10.7813 5.57652 10.7813C5.60203 10.7813 5.65305 10.75 5.68877 10.7136C5.85713 10.5625 5.91836 10.5209 5.96938 10.5209C5.99489 10.5209 6.0204 10.4844 6.0204 10.4427C6.0204 10.4011 6.05611 10.3646 6.09693 10.3646C6.13775 10.3646 6.17346 10.3386 6.17346 10.3125C6.17346 10.2813 6.20917 10.2605 6.24999 10.2605C6.29591 10.2605 6.38264 10.2032 6.44897 10.1302C6.5153 10.0573 6.58162 10 6.60203 10C6.62244 10 6.67346 9.96879 6.70917 9.93233C6.86734 9.79171 6.93366 9.73962 6.96428 9.73962C6.98468 9.73962 7.0306 9.70837 7.06632 9.67191C7.22448 9.53129 7.29081 9.47921 7.32652 9.47921C7.34693 9.47921 7.41326 9.42191 7.47958 9.349C7.54591 9.27608 7.63264 9.21879 7.67856 9.21879C7.71938 9.21879 7.75509 9.19275 7.75509 9.16671C7.75509 9.13546 7.79081 9.11462 7.83162 9.11462C7.87244 9.11462 7.90815 9.07816 7.90815 9.0365C7.90815 8.99483 7.94387 8.95837 7.98468 8.95837C8.0255 8.95837 8.06121 8.93233 8.06121 8.90629C8.06121 8.87504 8.10713 8.85421 8.16326 8.85421C8.21938 8.85421 8.2653 8.81775 8.2653 8.77608C8.2653 8.73441 8.30101 8.69796 8.34183 8.69796C8.38264 8.69796 8.41836 8.67191 8.41836 8.64587C8.41836 8.61462 8.48979 8.59379 8.57652 8.59379C8.69387 8.59379 8.7857 8.64066 8.90815 8.77608C8.99999 8.87504 9.09183 8.95837 9.10713 8.95837C9.12754 8.95837 9.17346 8.98962 9.20917 9.02087C9.37754 9.17712 9.43877 9.21879 9.48979 9.21879C9.5153 9.21879 9.54081 9.24483 9.54081 9.27608C9.54081 9.349 9.66836 9.47921 9.73979 9.47921C9.7704 9.47921 9.79591 9.50525 9.79591 9.5365C9.79591 9.599 9.92346 9.73962 9.97958 9.73962C9.99999 9.73962 10.0663 9.79691 10.1326 9.86983C10.199 9.94275 10.2857 10 10.3316 10C10.3724 10 10.4082 10.0365 10.4082 10.0782C10.4082 10.1198 10.4286 10.1563 10.4541 10.1563C10.4796 10.1563 10.6071 10.2605 10.7347 10.3907C10.8673 10.5209 10.9949 10.625 11.0204 10.625C11.051 10.625 11.0714 10.6511 11.0714 10.6823C11.0714 10.7396 11.199 10.8855 11.25 10.8855C11.2908 10.8855 11.3877 10.9688 11.6377 11.2084C11.7449 11.3177 11.852 11.4063 11.8673 11.4063C11.9184 11.4063 12.0408 11.5521 12.0408 11.6094C12.0408 11.6407 12.0663 11.6667 12.0918 11.6667C12.1224 11.6667 12.2092 11.724 12.2857 11.7969C12.3622 11.8698 12.449 11.9271 12.4847 11.9271C12.5204 11.9271 12.551 11.9532 12.551 11.9844C12.551 12.0417 12.6786 12.1875 12.7296 12.1875C12.7449 12.1875 12.8928 12.3282 13.0561 12.5C13.2194 12.6719 13.3724 12.8125 13.3877 12.8125C13.4337 12.8125 13.5255 12.8907 13.7755 13.1355C13.949 13.3125 14.1837 13.4011 14.1837 13.2917C14.1837 13.2709 14.2653 13.2084 14.3622 13.1563C14.4592 13.099 14.5408 13.0365 14.5408 13.0105C14.5408 12.9896 14.5765 12.9688 14.6173 12.9688C14.6582 12.9688 14.6939 12.9323 14.6939 12.8907C14.6939 12.849 14.7296 12.8125 14.7704 12.8125C14.8112 12.8125 14.8469 12.7865 14.8469 12.7605C14.8469 12.7292 14.8928 12.7084 14.949 12.7084C15.0051 12.7084 15.051 12.6719 15.051 12.6302C15.051 12.5886 15.0765 12.5521 15.1071 12.5521C15.1377 12.5521 15.1939 12.5209 15.2296 12.4844C15.3877 12.3438 15.4541 12.2917 15.4898 12.2917C15.5102 12.2917 15.5969 12.2084 15.6939 12.1094C15.7857 12.0105 15.9082 11.9271 15.9643 11.9271C16.0255 11.9271 16.0714 11.9011 16.0714 11.8698C16.0714 11.7969 16.199 11.6667 16.2704 11.6667C16.301 11.6667 16.3265 11.6459 16.3265 11.6198C16.3265 11.5938 16.3775 11.5521 16.4439 11.5313C16.5051 11.5105 16.5918 11.4532 16.6377 11.4011C16.6837 11.3438 16.7398 11.3021 16.7551 11.3021C16.7755 11.3021 16.8265 11.2709 16.8622 11.2344C17.0306 11.0834 17.0918 11.0417 17.1428 11.0417C17.1684 11.0417 17.1939 11.0052 17.1939 10.9636C17.1939 10.9219 17.2194 10.8855 17.25 10.8855C17.2806 10.8855 17.3367 10.8542 17.3724 10.8177C17.5408 10.6667 17.602 10.625 17.6531 10.625C17.6786 10.625 17.7041 10.599 17.7041 10.573C17.7041 10.5417 17.7296 10.5209 17.7602 10.5209C17.7908 10.5209 17.8469 10.4896 17.8826 10.4532C18.0408 10.3125 18.1071 10.2605 18.1428 10.2605C18.1633 10.2605 18.2296 10.2032 18.2959 10.1302C18.3622 10.0573 18.4388 10 18.4694 10C18.5 10 18.5765 9.94275 18.6428 9.86983C18.7092 9.79691 18.7755 9.73962 18.7959 9.73962C18.8163 9.73962 18.8673 9.70837 18.9031 9.67191C19.0918 9.50525 19.1377 9.47921 19.2857 9.47921C19.3724 9.47921 19.4796 9.51046 19.5153 9.54171C19.6837 9.69796 19.7449 9.73962 19.7959 9.73962C19.8214 9.73962 19.8469 9.76046 19.8469 9.7865C19.8469 9.81254 19.898 9.85421 19.9643 9.87504C20.0255 9.89587 20.1122 9.95316 20.1531 10C20.1939 10.0469 20.2806 10.1042 20.3469 10.125C20.4082 10.1459 20.4592 10.1875 20.4592 10.2136C20.4592 10.2396 20.4847 10.2605 20.5102 10.2605C20.5612 10.2605 20.6224 10.3021 20.7908 10.4532C20.8265 10.4896 20.8826 10.5209 20.9133 10.5209C20.9439 10.5209 20.9694 10.5417 20.9694 10.573C20.9694 10.599 21.0051 10.625 21.0459 10.625C21.0867 10.625 21.1735 10.6823 21.2398 10.75C21.3061 10.8177 21.4082 10.8907 21.4694 10.9063C21.5306 10.9271 21.5816 10.9688 21.5816 10.9948C21.5816 11.0209 21.6173 11.0417 21.6582 11.0417C21.699 11.0417 21.7347 11.0625 21.7347 11.0938C21.7347 11.1198 21.7653 11.1459 21.801 11.1459C21.8367 11.1459 21.9235 11.2032 22 11.2761C22.0765 11.349 22.1531 11.4063 22.1684 11.4063C22.1888 11.4063 22.2347 11.4375 22.2704 11.4688C22.4388 11.625 22.5 11.6667 22.551 11.6667C22.5765 11.6667 22.602 11.6875 22.602 11.7136C22.602 11.7396 22.6531 11.7813 22.7194 11.8021C22.7806 11.823 22.8673 11.8802 22.9082 11.9271C22.949 11.974 23.0357 12.0313 23.102 12.0521C23.1633 12.073 23.2143 12.1146 23.2143 12.1407C23.2143 12.1667 23.25 12.1875 23.2908 12.1875C23.3316 12.1875 23.3673 12.2084 23.3673 12.2396C23.3673 12.2657 23.398 12.2917 23.4337 12.2917C23.4694 12.2917 23.5561 12.349 23.6275 12.4167C23.699 12.4844 23.8061 12.5573 23.8673 12.573C23.9286 12.5938 23.9796 12.6355 23.9796 12.6615C23.9796 12.6875 24.0051 12.7084 24.0306 12.7084C24.0612 12.7084 24.1428 12.7657 24.2143 12.8386C24.2857 12.9115 24.3724 12.9688 24.4133 12.9688C24.4541 12.9688 24.4898 12.9896 24.4898 13.0105C24.4898 13.0365 24.5714 13.099 24.6684 13.1563C24.7653 13.2084 24.8469 13.2709 24.8469 13.2917C24.8469 13.3177 24.8826 13.3334 24.9235 13.3334C24.9643 13.3334 25 13.349 25 13.375C25 13.3959 25.0816 13.4584 25.1786 13.5105C25.2755 13.5677 25.3571 13.6302 25.3571 13.6563C25.3571 13.6771 25.3928 13.698 25.4337 13.698C25.4745 13.698 25.5612 13.7552 25.6326 13.8282C25.7041 13.9011 25.7857 13.9584 25.8163 13.9584C25.9031 13.9584 25.8775 14.4167 25.7806 14.5313C25.6684 14.6615 25.2806 14.6823 25.2347 14.5573C25.2194 14.5157 25.1582 14.4792 25.102 14.4792C25.0459 14.4792 25 14.4532 25 14.4271C25 14.3959 24.9643 14.375 24.9235 14.375C24.8826 14.375 24.8469 14.3386 24.8469 14.2969C24.8469 14.2552 24.801 14.2188 24.7449 14.2188C24.6888 14.2188 24.6428 14.1927 24.6428 14.1667C24.6428 14.1355 24.6071 14.1146 24.5663 14.1146C24.5255 14.1146 24.4898 14.0782 24.4898 14.0365C24.4898 13.9948 24.4541 13.9584 24.4133 13.9584C24.3724 13.9584 24.3367 13.9323 24.3367 13.9063C24.3367 13.875 24.2959 13.8542 24.2398 13.8542C24.1888 13.8542 24.102 13.7969 24.051 13.724C24 13.6511 23.9133 13.5938 23.8571 13.5938C23.8061 13.5938 23.7092 13.5365 23.6428 13.4636C23.5765 13.3907 23.5 13.3334 23.4643 13.3334C23.4337 13.3334 23.352 13.2761 23.2857 13.2032C23.2194 13.1302 23.1326 13.073 23.0867 13.073C22.9898 13.073 22.8571 12.9532 22.8571 12.8698C22.8571 12.8386 22.801 12.8125 22.7296 12.8125C22.6582 12.8125 22.602 12.7865 22.602 12.7605C22.602 12.7292 22.5663 12.7084 22.5255 12.7084C22.4847 12.7084 22.449 12.6875 22.449 12.6615C22.449 12.573 22.2857 12.5521 22.1786 12.6302C22.1173 12.6719 22.0153 12.7084 21.9541 12.7084C21.8877 12.7084 21.8367 12.7292 21.8367 12.7605C21.8367 12.7865 21.7806 12.8125 21.7092 12.8125C21.6377 12.8125 21.5816 12.8386 21.5816 12.8698C21.5816 12.9271 21.5408 12.9219 21.1122 12.8282C21.0306 12.8125 20.9694 12.7813 20.9694 12.7552C20.9694 12.7292 20.9133 12.7084 20.8469 12.7084C20.7755 12.7084 20.6888 12.6719 20.6428 12.6302C20.602 12.5886 20.5102 12.5521 20.4388 12.5521C20.3724 12.5521 20.2806 12.5886 20.2347 12.6302C20.1939 12.6719 20.1122 12.7084 20.0561 12.7084C19.9949 12.7084 19.949 12.7292 19.949 12.7605C19.949 12.7865 19.8673 12.8125 19.7704 12.8125C19.6735 12.8125 19.5918 12.8334 19.5918 12.8646C19.5918 12.8907 19.5357 12.9167 19.4643 12.9167C19.3928 12.9167 19.3367 12.8907 19.3367 12.8646C19.3367 12.8334 19.2806 12.8125 19.2092 12.8125C19.1377 12.8125 19.0816 12.7865 19.0816 12.7605C19.0816 12.7292 19.0051 12.7084 18.9082 12.7084C18.801 12.7084 18.7245 12.6771 18.7041 12.6302C18.6888 12.5834 18.6122 12.5521 18.5204 12.5521C18.4286 12.5521 18.352 12.5834 18.3367 12.6302C18.3163 12.6771 18.2398 12.7084 18.1326 12.7084C18.0357 12.7084 17.9592 12.7292 17.9592 12.7605C17.9592 12.7865 17.9031 12.8125 17.8316 12.8125C17.7602 12.8125 17.7041 12.8334 17.7041 12.8646C17.7041 12.8907 17.648 12.9167 17.5765 12.9167C17.5051 12.9167 17.449 12.8907 17.449 12.8646C17.449 12.8334 17.3673 12.8125 17.2704 12.8125C17.1735 12.8125 17.0918 12.7865 17.0918 12.7605C17.0918 12.7292 17.0459 12.7084 16.9847 12.7084C16.9286 12.7084 16.8469 12.6719 16.8061 12.6302C16.7602 12.5886 16.6582 12.5521 16.5765 12.5521C16.4796 12.5521 16.4286 12.5782 16.4286 12.6302C16.4286 12.6719 16.3928 12.7084 16.352 12.7084C16.3112 12.7084 16.2755 12.7292 16.2755 12.7605C16.2755 12.7865 16.2296 12.8125 16.1735 12.8125C16.1173 12.8125 16.0714 12.849 16.0714 12.8907C16.0714 12.9323 16.0408 12.9688 16.0051 12.9688C15.9694 12.9688 15.9082 13.0157 15.8673 13.073C15.8265 13.1302 15.7653 13.1771 15.7296 13.1771C15.6939 13.1771 15.6122 13.2344 15.5408 13.3073C15.4694 13.3802 15.3877 13.4375 15.3571 13.4375C15.3316 13.4375 15.3061 13.4584 15.3061 13.4844C15.3061 13.5105 15.2551 13.5521 15.1939 13.573C15.0612 13.6146 14.949 13.7188 14.949 13.7969C14.949 13.8282 14.9133 13.8542 14.8724 13.8542C14.8265 13.8542 14.7959 13.9011 14.7959 13.9844C14.7959 14.0573 14.8214 14.1146 14.852 14.1146C14.9235 14.1146 15.051 14.2448 15.051 14.3177C15.051 14.349 15.0765 14.375 15.1071 14.375C15.1786 14.375 15.3061 14.5052 15.3061 14.5782C15.3061 14.6094 15.3316 14.6355 15.3571 14.6355C15.3877 14.6355 15.5612 14.7865 15.7398 14.9688C16.0051 15.2396 16.0714 15.3386 16.0714 15.4636C16.0714 15.5521 16.051 15.625 16.0204 15.625C15.9949 15.625 15.9694 15.6823 15.9694 15.7552V15.8855H16.5459C16.8928 15.8855 17.2398 15.9167 17.4133 15.9636C17.5765 16.0052 17.8826 16.0417 18.0867 16.0417C18.3061 16.0417 18.4694 16.0625 18.4694 16.0938C18.4694 16.125 18.648 16.1459 18.898 16.1459C19.148 16.1459 19.3367 16.1667 19.3469 16.198C19.3571 16.2292 19.5306 16.2657 19.7347 16.2865C19.9337 16.3021 20.102 16.3386 20.102 16.3594C20.102 16.3855 20.2398 16.4063 20.4082 16.4063C20.5765 16.4063 20.7143 16.4271 20.7143 16.4532C20.7143 16.474 20.852 16.5105 21.0204 16.5313C21.1888 16.5521 21.3265 16.5886 21.3265 16.6146C21.3265 16.6459 21.4439 16.6667 21.5816 16.6667C21.7245 16.6667 21.8367 16.6875 21.8367 16.7136C21.8367 16.7396 21.9541 16.7761 22.0918 16.7969C22.2347 16.8177 22.3469 16.8542 22.3469 16.8802C22.3469 16.9063 22.4286 16.9271 22.5255 16.9271C22.6224 16.9271 22.7041 16.948 22.7041 16.9792C22.7041 17.0052 22.7704 17.0313 22.852 17.0313C22.9337 17.0313 23.0357 17.0677 23.0816 17.1094C23.1224 17.1511 23.2245 17.1875 23.3112 17.1875C23.398 17.1875 23.4694 17.2084 23.4694 17.2396C23.4694 17.2657 23.5204 17.2917 23.5867 17.2917C23.6531 17.2917 23.75 17.3282 23.8061 17.3698C23.8571 17.4115 23.9541 17.448 24.0204 17.448C24.0816 17.448 24.1326 17.4688 24.1326 17.5C24.1326 17.5261 24.1786 17.5521 24.2398 17.5521C24.2959 17.5521 24.3775 17.5886 24.4184 17.6302C24.4643 17.6719 24.5408 17.7084 24.5969 17.7084C24.648 17.7084 24.6939 17.7292 24.6939 17.7605C24.6939 17.7865 24.75 17.8125 24.8214 17.8125C24.8928 17.8125 24.9643 17.849 24.9796 17.8907C25 17.9323 25.0561 17.9688 25.1071 17.9688C25.1582 17.9688 25.2041 17.9896 25.2041 18.0209C25.2041 18.0469 25.2398 18.073 25.2806 18.073C25.3214 18.073 25.3571 18.0938 25.3571 18.1198C25.3571 18.1459 25.4133 18.1823 25.4847 18.198C25.5561 18.2188 25.6122 18.2552 25.6122 18.2813C25.6122 18.3125 25.6684 18.3334 25.7398 18.3334C25.8214 18.3334 25.8673 18.3646 25.8673 18.4115C25.8673 18.4532 25.9031 18.4896 25.9439 18.4896C25.9847 18.4896 26.0204 18.5105 26.0204 18.5417C26.0204 18.5677 26.0561 18.5938 26.102 18.5938C26.148 18.5938 26.2398 18.6511 26.3061 18.724C26.3724 18.7969 26.4439 18.8542 26.4745 18.8542C26.5 18.8542 26.5306 18.8855 26.5459 18.9167C26.5561 18.9532 26.5867 18.9219 26.6071 18.8386C26.6275 18.7605 26.6633 18.698 26.6888 18.698C26.7143 18.698 26.7347 18.625 26.7347 18.5365C26.7347 18.448 26.7704 18.3438 26.8112 18.3021C26.852 18.2552 26.8877 18.1667 26.8877 18.0938C26.8877 18.0261 26.9133 17.9688 26.9388 17.9688C26.9694 17.9688 26.9898 17.8907 26.9898 17.7917C26.9898 17.6927 27.0153 17.5938 27.0408 17.5782C27.0714 17.5625 27.0918 17.4896 27.0918 17.4219C27.0918 17.3542 27.1275 17.2657 27.1684 17.2188C27.2194 17.1719 27.2449 17.0417 27.2449 16.8542C27.2449 16.6927 27.2653 16.5625 27.2908 16.5625C27.3163 16.5625 27.3571 16.4115 27.3724 16.224C27.3928 16.0365 27.4286 15.8855 27.4541 15.8855C27.4796 15.8855 27.5 15.6615 27.5 15.3907C27.5 15.0938 27.5204 14.8959 27.551 14.8959C27.5816 14.8959 27.602 14.4948 27.602 13.8021C27.602 13.1615 27.5816 12.7084 27.5561 12.7084C27.5306 12.7084 27.4949 12.4896 27.4847 12.224C27.4541 11.6875 27.3469 11.0417 27.2857 11.0417C27.2653 11.0417 27.2449 10.9219 27.2449 10.7813C27.2449 10.6355 27.2245 10.5209 27.199 10.5209C27.1735 10.5209 27.1377 10.4011 27.1173 10.2605C27.0969 10.1146 27.0612 10 27.0357 10C27.0102 10 26.9898 9.91671 26.9898 9.81775C26.9898 9.71879 26.9694 9.63546 26.9439 9.63546C26.9184 9.63546 26.8826 9.56775 26.8622 9.47921C26.8418 9.39587 26.8061 9.31254 26.7806 9.29691C26.7551 9.27608 26.7347 9.19796 26.7347 9.10941C26.7347 9.02608 26.7143 8.95837 26.6837 8.95837C26.6582 8.95837 26.6326 8.9115 26.6326 8.849C26.6326 8.79171 26.5969 8.70837 26.5561 8.66671C26.5153 8.61983 26.4796 8.53129 26.4796 8.45837C26.4796 8.39066 26.4592 8.33337 26.4337 8.33337C26.4082 8.33337 26.3724 8.27608 26.3571 8.20316C26.3367 8.13025 26.301 8.07296 26.2755 8.07296C26.2449 8.07296 26.2245 8.01566 26.2245 7.94275C26.2245 7.86983 26.2041 7.81254 26.1786 7.81254C26.1531 7.81254 26.1173 7.77087 26.102 7.71879C26.0357 7.55212 25.9439 7.39587 25.9082 7.39587C25.8826 7.39587 25.8673 7.349 25.8673 7.29171C25.8673 7.23441 25.8469 7.18754 25.8163 7.18754C25.7908 7.18754 25.7551 7.13025 25.7347 7.05733C25.7194 6.98441 25.6837 6.92712 25.6582 6.92712C25.6326 6.92712 25.6122 6.90108 25.6122 6.86983C25.6122 6.83858 25.5816 6.78129 25.551 6.74483C25.398 6.57296 25.3571 6.51046 25.3571 6.45837C25.3571 6.43233 25.3367 6.40629 25.3112 6.40629C25.2857 6.40629 25.2449 6.35421 25.2245 6.2865C25.2041 6.224 25.148 6.13546 25.0969 6.08858C25.0408 6.04171 25 5.97921 25 5.94275C25 5.9115 24.9643 5.88546 24.9235 5.88546C24.8826 5.88546 24.8469 5.83858 24.8469 5.78129C24.8469 5.724 24.8265 5.67712 24.7959 5.67712C24.7704 5.67712 24.7449 5.64066 24.7449 5.599C24.7449 5.55733 24.7092 5.52087 24.6684 5.52087C24.6275 5.52087 24.5918 5.49483 24.5918 5.46358C24.5918 5.39066 24.4643 5.26046 24.3928 5.26046C24.3622 5.26046 24.3367 5.23441 24.3367 5.20837C24.3367 5.13546 23.5918 4.37504 23.5204 4.37504C23.4949 4.37504 23.4694 4.349 23.4694 4.31775C23.4694 4.24483 23.3418 4.11462 23.2704 4.11462C23.2398 4.11462 23.2143 4.08858 23.2143 4.05733C23.2143 4.00004 23.0867 3.85421 23.0357 3.85421C23.0153 3.85421 22.9694 3.82296 22.9337 3.7865C22.7755 3.64587 22.7092 3.59379 22.6735 3.59379C22.6531 3.59379 22.5867 3.5365 22.5204 3.46358C22.4541 3.39066 22.3775 3.33337 22.3418 3.33337C22.3112 3.33337 22.2296 3.27608 22.1633 3.20316C22.0969 3.13025 22.0051 3.07296 21.9541 3.07296C21.9031 3.07296 21.8163 3.01566 21.7653 2.94275C21.7143 2.86983 21.6275 2.81254 21.5765 2.81254C21.5204 2.81254 21.4796 2.79171 21.4796 2.76566C21.4796 2.73962 21.4235 2.70316 21.352 2.68754C21.2806 2.66671 21.2245 2.63025 21.2245 2.60421C21.2245 2.57296 21.1888 2.55212 21.148 2.55212C21.1071 2.55212 21.0714 2.52608 21.0714 2.50004C21.0714 2.46879 21.0408 2.44796 21 2.44796C20.9133 2.44796 20.5918 2.28129 20.5714 2.224C20.5612 2.20316 20.4949 2.18754 20.4286 2.18754C20.3622 2.18754 20.3061 2.16671 20.3061 2.13546C20.3061 2.10941 20.25 2.07296 20.1786 2.05212C20.1071 2.0365 20.051 2.00004 20.051 1.974C20.051 1.94796 19.9949 1.92712 19.9286 1.92712C19.8622 1.92712 19.7398 1.89066 19.6633 1.849C19.5816 1.80733 19.4745 1.77087 19.4286 1.77087C19.3775 1.77087 19.3367 1.74483 19.3367 1.71879C19.3367 1.68754 19.2806 1.66671 19.2092 1.66671C19.1377 1.66671 19.0816 1.64066 19.0816 1.61462C19.0816 1.58337 19.0306 1.56254 18.9694 1.56254C18.9031 1.56254 18.7857 1.52608 18.7041 1.48441C18.6275 1.44275 18.4796 1.40629 18.3877 1.40629C18.2908 1.40629 18.2143 1.38025 18.2143 1.3542C18.2143 1.32295 18.1224 1.30212 18.0153 1.30212C17.9031 1.30212 17.7806 1.26566 17.7347 1.224C17.6837 1.17191 17.5561 1.14587 17.352 1.14587C17.1786 1.14587 17.0408 1.12504 17.0408 1.09379C17.0408 1.06254 16.8877 1.0417 16.6837 1.0417C16.4898 1.0417 16.199 1.00525 16.0357 0.96358C15.648 0.859413 14.3061 0.859413 13.9796 0.968788ZM13.602 4.10941C13.6582 4.1615 13.7551 4.224 13.8163 4.23962C13.8775 4.26046 13.9286 4.30212 13.9286 4.32816C13.9286 4.35421 13.9643 4.37504 14.0051 4.37504C14.0459 4.37504 14.0816 4.39587 14.0816 4.42712C14.0816 4.45316 14.1275 4.47921 14.1786 4.47921C14.2296 4.47921 14.2857 4.51566 14.3061 4.55733C14.3214 4.599 14.3826 4.63546 14.4388 4.63546C14.4949 4.63546 14.5408 4.65629 14.5408 4.68754C14.5408 4.71358 14.5765 4.73962 14.6173 4.73962C14.6582 4.73962 14.6939 4.76046 14.6939 4.79171C14.6939 4.81775 14.75 4.85421 14.8214 4.87504C14.8928 4.89066 14.949 4.92712 14.949 4.95316C14.949 4.97921 14.9847 5.00004 15.0255 5.00004C15.0663 5.00004 15.102 5.02087 15.102 5.05212C15.102 5.07816 15.148 5.10421 15.2041 5.10421C15.2602 5.10421 15.3061 5.14066 15.3061 5.18233C15.3061 5.22921 15.352 5.26046 15.4337 5.26046C15.5051 5.26046 15.5612 5.23962 15.5612 5.21358C15.5612 5.18754 15.6122 5.14587 15.6684 5.13025C15.7296 5.10941 15.8469 5.02608 15.9286 4.94275C16.0153 4.85941 16.1326 4.78129 16.1939 4.76046C16.25 4.73962 16.352 4.67191 16.4133 4.60421C16.4745 4.5365 16.5612 4.47921 16.6071 4.47921C16.648 4.47921 16.6837 4.45837 16.6837 4.43233C16.6837 4.40629 16.7398 4.36983 16.8112 4.35421C16.8826 4.33337 16.9388 4.29691 16.9388 4.27087C16.9388 4.23962 16.9745 4.21879 17.0153 4.21879C17.0561 4.21879 17.0918 4.19275 17.0918 4.16671C17.0918 4.13546 17.1735 4.11462 17.2704 4.11462C17.3673 4.11462 17.449 4.13546 17.449 4.16671C17.449 4.19275 17.5051 4.21879 17.5714 4.21879C17.6428 4.21879 17.7296 4.25525 17.7755 4.29691C17.8163 4.33858 17.8724 4.37504 17.9031 4.37504C17.9847 4.37504 17.9745 5.08858 17.898 5.18754C17.8316 5.26566 17.7755 5.32296 17.6275 5.45316C17.5918 5.48962 17.5357 5.52087 17.5051 5.52087C17.4745 5.52087 17.449 5.54171 17.449 5.57296C17.449 5.599 17.4133 5.62504 17.3724 5.62504C17.3316 5.62504 17.2449 5.68233 17.1735 5.75525C17.102 5.82816 17.0204 5.88546 16.9898 5.88546C16.9643 5.88546 16.9388 5.90629 16.9388 5.93754C16.9388 5.96358 16.8826 6.00004 16.8112 6.02087C16.7398 6.0365 16.6837 6.07296 16.6837 6.099C16.6837 6.12504 16.6531 6.14587 16.6224 6.14587C16.5102 6.14587 16.2245 6.44275 16.2245 6.55733C16.2245 6.61462 16.25 6.66671 16.2755 6.66671C16.3061 6.66671 16.3265 6.83337 16.3265 7.05733C16.3265 7.28129 16.3469 7.44796 16.3775 7.44796C16.4082 7.44796 16.4286 7.59379 16.4286 7.7865C16.4286 7.974 16.4643 8.21358 16.5051 8.31775C16.5459 8.41671 16.5816 8.58337 16.5816 8.67712C16.5816 8.80212 16.5561 8.85421 16.5051 8.85421C16.4643 8.85421 16.4286 8.81775 16.4286 8.77608C16.4286 8.73441 16.4082 8.69796 16.3775 8.69796C16.352 8.69796 16.3265 8.6615 16.3265 8.61983C16.3265 8.57296 16.2704 8.48441 16.199 8.41671C16.1275 8.349 16.0714 8.27087 16.0714 8.23962C16.0714 8.20837 16.0153 8.12504 15.9439 8.05212C15.8724 7.97921 15.8163 7.88546 15.8163 7.83858C15.8163 7.79171 15.7602 7.70316 15.6888 7.63546C15.6173 7.56775 15.5612 7.474 15.5612 7.42712C15.5612 7.38025 15.5408 7.34379 15.5102 7.34379C15.4847 7.34379 15.4592 7.30733 15.4592 7.26566C15.4592 7.224 15.4235 7.18754 15.3826 7.18754C15.3418 7.18754 15.3061 7.15108 15.3061 7.10941C15.3061 7.06775 15.2857 7.03129 15.2602 7.03129C15.2347 7.03129 15.1888 7.06775 15.1531 7.10941C15.1173 7.15108 15.0561 7.18754 15.0204 7.18754C14.9796 7.18754 14.949 7.20837 14.949 7.23962C14.949 7.26566 14.8928 7.29171 14.8214 7.29171C14.7398 7.29171 14.6939 7.32296 14.6939 7.36983C14.6939 7.41671 14.648 7.44796 14.5663 7.44796C14.4949 7.44796 14.4388 7.46879 14.4388 7.50004C14.4388 7.52608 14.4031 7.55212 14.3622 7.55212C14.3214 7.55212 14.2857 7.57296 14.2857 7.60421C14.2857 7.63025 14.2296 7.66671 14.1582 7.68754C14.0867 7.70316 14.0306 7.73962 14.0306 7.76566C14.0306 7.79171 13.9898 7.81254 13.9337 7.81254C13.8571 7.81254 13.8367 7.86462 13.8112 8.05733C13.7959 8.19275 13.7602 8.31254 13.7296 8.32296C13.699 8.33337 13.6735 8.39066 13.6735 8.44796C13.6735 8.67191 13.352 8.79691 13.2908 8.59379C13.2755 8.5365 13.2347 8.48962 13.2092 8.48962C13.1837 8.48962 13.1633 8.45316 13.1633 8.4115C13.1633 8.36983 13.1428 8.33337 13.1122 8.33337C13.0867 8.33337 13.0612 8.30212 13.0612 8.26566C13.0612 8.22921 13.0102 8.14066 12.949 8.07296C12.8826 8.00004 12.7857 7.85421 12.7347 7.74483C12.6786 7.64066 12.6173 7.55212 12.5918 7.55212C12.5714 7.55212 12.551 7.51566 12.551 7.474C12.551 7.42712 12.4949 7.33858 12.4235 7.27087C12.2755 7.13025 12.2704 7.10421 12.3673 7.00004C12.4235 6.94796 12.5714 6.92712 12.9031 6.92712H13.3622L13.5969 6.69275C13.7296 6.56775 13.8775 6.44796 13.9337 6.43233C13.9847 6.4115 14.0306 6.37504 14.0306 6.349C14.0306 6.32296 14.0663 6.30212 14.1071 6.30212C14.148 6.30212 14.1837 6.26566 14.1837 6.224C14.1837 6.18233 14.2194 6.14587 14.2602 6.14587C14.301 6.14587 14.3367 6.12504 14.3367 6.099C14.3367 6.07296 14.3826 6.03129 14.4388 6.01566C14.5408 5.98441 14.5867 5.78129 14.4898 5.78129C14.4643 5.78129 14.4388 5.75525 14.4388 5.724C14.4388 5.68754 14.3826 5.60941 14.3112 5.54171C14.2398 5.474 14.1837 5.38546 14.1837 5.33858C14.1837 5.29691 14.1633 5.26046 14.1428 5.26046C14.1173 5.26046 14.0561 5.17712 14 5.07816C13.949 4.97921 13.8877 4.89587 13.8673 4.89587C13.8418 4.89587 13.8265 4.85941 13.8265 4.81775C13.8265 4.77608 13.8061 4.73962 13.7755 4.73962C13.75 4.73962 13.7143 4.68233 13.6939 4.60941C13.6786 4.5365 13.648 4.47921 13.6275 4.47921C13.6122 4.47921 13.551 4.39066 13.4949 4.28129C13.4388 4.17712 13.3724 4.07296 13.3418 4.05212C13.3163 4.03129 13.3367 4.01046 13.3979 4.01046C13.4541 4.01046 13.5459 4.05212 13.602 4.10941Z" fill="url(#paint0_linear_18_534)"/>
<path d="M8.41846 9.6875C8.41846 9.71354 8.39295 9.73958 8.36744 9.73958C8.31642 9.73958 8.25519 9.78125 8.08682 9.93229C8.05111 9.96875 8.00519 10 7.98478 10C7.96948 10 7.90315 10.0573 7.83682 10.1302C7.7705 10.2031 7.68887 10.2604 7.65315 10.2604C7.61744 10.2604 7.5358 10.3177 7.46948 10.3906C7.40315 10.4635 7.33682 10.5208 7.32152 10.5208C7.30111 10.5208 7.25519 10.5521 7.21948 10.5833C7.05621 10.7344 6.98989 10.7812 6.95417 10.7812C6.92866 10.7812 6.86744 10.8385 6.81642 10.9115C6.7654 10.9844 6.68376 11.0417 6.64295 11.0417C6.60213 11.0417 6.49499 11.125 6.39805 11.224C6.30621 11.3229 6.18376 11.4062 6.12764 11.4062C6.06642 11.4062 6.0205 11.4427 6.0205 11.4844C6.0205 11.526 6.00009 11.5625 5.96948 11.5625C5.94397 11.5625 5.91846 11.6094 5.91846 11.6667C5.91846 11.7448 5.95417 11.7708 6.06131 11.7812C6.30111 11.7917 6.50519 11.7656 6.5205 11.7135C6.5307 11.6875 6.61744 11.6667 6.71438 11.6667C6.81131 11.6667 6.88784 11.6458 6.88784 11.6198C6.88784 11.5937 6.96438 11.5521 7.05621 11.5365C7.14295 11.5156 7.25009 11.474 7.2858 11.4427C7.33172 11.4062 7.36744 11.4062 7.38784 11.4427C7.40825 11.4687 7.51029 11.5104 7.61744 11.5312C7.71948 11.5521 7.80621 11.5885 7.80621 11.6146C7.80621 11.6458 7.88274 11.6667 7.97968 11.6667C8.07662 11.6667 8.16336 11.6979 8.17356 11.7292C8.18887 11.7656 8.29091 11.7969 8.41846 11.7969C8.54601 11.7969 8.64805 11.7656 8.66336 11.7292C8.67356 11.6979 8.76029 11.6667 8.85723 11.6667C8.95417 11.6667 9.0307 11.6458 9.0307 11.6146C9.0307 11.5885 9.12254 11.5469 9.23478 11.5312C9.34703 11.5104 9.43887 11.4792 9.43887 11.4531C9.43887 11.4271 9.48478 11.4062 9.54091 11.4062C9.59703 11.4062 9.64295 11.4271 9.64295 11.4583C9.64295 11.4844 9.73478 11.526 9.84703 11.5417C9.95927 11.5625 10.0511 11.5937 10.0511 11.6198C10.0511 11.6458 10.1072 11.6667 10.1736 11.6667C10.2399 11.6667 10.3062 11.6927 10.3164 11.724C10.3368 11.7812 10.847 11.8073 10.9032 11.7552C10.9389 11.7135 10.5358 11.3021 10.4593 11.3021C10.4338 11.3021 10.4083 11.2656 10.4083 11.224C10.4083 11.1823 10.3827 11.1458 10.3572 11.1458C10.3266 11.1458 10.245 11.0937 10.1787 11.026C9.97458 10.8333 9.90315 10.7812 9.84703 10.7812C9.82152 10.7812 9.79601 10.7448 9.79601 10.7031C9.79601 10.6615 9.7705 10.625 9.73989 10.625C9.66846 10.625 9.54091 10.4948 9.54091 10.4219C9.54091 10.3906 9.5154 10.3646 9.48989 10.3646C9.45927 10.3646 9.32152 10.2448 9.17866 10.1042C9.04091 9.95833 8.89805 9.84375 8.86233 9.84375C8.82662 9.84375 8.7654 9.79687 8.72458 9.73958C8.64805 9.63542 8.41846 9.59375 8.41846 9.6875Z" fill="url(#paint1_linear_18_534)"/>
<path d="M19.0051 10.651C18.949 10.7188 18.8724 10.776 18.8316 10.7813C18.7959 10.7813 18.6888 10.8646 18.5918 10.9635C18.5 11.0625 18.3775 11.1458 18.3214 11.1458C18.2602 11.1458 18.2143 11.1823 18.2143 11.224C18.2143 11.2656 18.1888 11.3021 18.1633 11.3021C18.1326 11.3021 18.051 11.3594 17.9796 11.4323C17.9082 11.5052 17.8316 11.5625 17.801 11.5625C17.7245 11.5625 17.449 11.8698 17.449 11.9531C17.449 11.9948 17.4949 12.0312 17.551 12.0312C17.6071 12.0312 17.6531 12.0052 17.6531 11.9792C17.6531 11.9479 17.7143 11.9271 17.7857 11.9271C17.8571 11.9271 17.949 11.8906 17.9898 11.849C18.0357 11.8073 18.1224 11.7708 18.1939 11.7708C18.2602 11.7708 18.3163 11.7448 18.3163 11.7188C18.3163 11.6875 18.4082 11.6667 18.5204 11.6667C18.6326 11.6667 18.7245 11.6875 18.7245 11.7135C18.7245 11.7396 18.8061 11.776 18.9031 11.7917C19 11.8125 19.0816 11.849 19.0816 11.875C19.0816 11.9063 19.1378 11.9271 19.2092 11.9271C19.2806 11.9271 19.3367 11.9479 19.3367 11.9792C19.3367 12.0052 19.3929 12.0312 19.4643 12.0312C19.5357 12.0312 19.5918 12.0052 19.5918 11.9792C19.5918 11.9479 19.648 11.9271 19.7194 11.9271C19.7908 11.9271 19.8469 11.9063 19.8469 11.875C19.8469 11.849 19.9286 11.8125 20.0255 11.7917C20.1224 11.776 20.2041 11.7396 20.2041 11.7135C20.2041 11.6875 20.3214 11.6667 20.4592 11.6667C20.602 11.6667 20.7143 11.6875 20.7143 11.7135C20.7143 11.7396 20.7959 11.776 20.8929 11.7917C20.9898 11.8125 21.0714 11.849 21.0714 11.875C21.0714 11.9063 21.1275 11.9271 21.199 11.9271C21.2704 11.9271 21.3265 11.9479 21.3265 11.9792C21.3265 12.0052 21.3622 12.0312 21.4031 12.0312C21.4439 12.0312 21.4796 12.0052 21.4796 11.9792C21.4796 11.9479 21.4541 11.9271 21.4235 11.9271C21.3878 11.9271 21.3112 11.8698 21.2449 11.7969C21.1786 11.724 21.102 11.6667 21.0663 11.6667C21.0357 11.6667 20.9541 11.6094 20.8878 11.5365C20.8214 11.4635 20.7347 11.4063 20.6888 11.4063C20.648 11.4063 20.6122 11.3802 20.6122 11.3542C20.6122 11.3229 20.5765 11.3021 20.5357 11.3021C20.4949 11.3021 20.4592 11.2656 20.4592 11.224C20.4592 11.1771 20.4133 11.1458 20.3418 11.1458C20.2806 11.1458 20.1837 11.0885 20.1326 11.0156C20.0816 10.9427 19.9949 10.8854 19.9439 10.8854C19.8878 10.8854 19.8469 10.8594 19.8469 10.8333C19.8469 10.8021 19.8112 10.7813 19.7704 10.7813C19.7296 10.7813 19.6939 10.7448 19.6939 10.7031C19.6939 10.6615 19.648 10.625 19.5918 10.625C19.5357 10.625 19.4898 10.599 19.4898 10.5729C19.4898 10.5417 19.4031 10.5208 19.301 10.5208C19.1582 10.5208 19.0816 10.5573 19.0051 10.651Z" fill="url(#paint2_linear_18_534)"/>
<path d="M9.79591 16.7239C9.79591 16.7552 9.76019 16.8124 9.71938 16.8541C9.62244 16.9583 9.62244 17.1666 9.71938 17.2499C9.7653 17.2864 9.83162 17.3489 9.87244 17.3802C9.90815 17.4166 10.0255 17.4479 10.1224 17.4479C10.2245 17.4479 10.3061 17.4687 10.3061 17.4999C10.3061 17.5312 10.4388 17.552 10.6071 17.552C10.7908 17.552 10.9184 17.5781 10.9286 17.6145C10.9388 17.6458 11.0816 17.6822 11.2398 17.6979C11.3979 17.7083 11.5306 17.7395 11.5306 17.7656C11.5306 17.7916 11.6531 17.8124 11.8061 17.8124C11.9541 17.8124 12.1479 17.8489 12.2245 17.8906C12.3061 17.9322 12.4694 17.9687 12.5918 17.9687C12.7092 17.9687 12.8061 17.9895 12.8061 18.0208C12.8061 18.0468 12.9235 18.0729 13.0612 18.0729C13.2041 18.0729 13.3163 18.0937 13.3163 18.1249C13.3163 18.151 13.3724 18.177 13.4388 18.177C13.5102 18.177 13.5969 18.2135 13.6428 18.2552C13.6837 18.2968 13.7296 18.3333 13.75 18.3333C13.8367 18.3333 13.9286 18.4999 13.9286 18.6458C13.9286 18.8072 13.8316 18.9583 13.7296 18.9583C13.699 18.9583 13.6735 18.9947 13.6735 19.0364C13.6735 19.0781 13.6275 19.1145 13.5714 19.1145C13.5153 19.1145 13.4694 19.1354 13.4694 19.1666C13.4694 19.1927 13.4286 19.2187 13.3724 19.2187C13.3214 19.2187 13.25 19.2552 13.2143 19.2968C13.1786 19.3385 13.0969 19.3749 13.0306 19.3749C12.9643 19.3749 12.9082 19.3958 12.9082 19.427C12.9082 19.4531 12.8622 19.4791 12.801 19.4791C12.7449 19.4791 12.6633 19.5156 12.6224 19.5572C12.5765 19.5989 12.4898 19.6354 12.4184 19.6354C12.352 19.6354 12.2959 19.6562 12.2959 19.6822C12.2959 19.7083 12.2347 19.7395 12.1582 19.7552C11.9337 19.802 11.6326 19.9166 11.6326 19.9583C11.6326 19.9843 11.551 19.9999 11.4541 19.9999C11.3571 19.9999 11.2755 20.0208 11.2755 20.0468C11.2755 20.0781 11.1735 20.1145 11.0459 20.1354C10.9184 20.151 10.8163 20.1874 10.8163 20.2135C10.8163 20.2395 10.7245 20.2604 10.6122 20.2604C10.5 20.2604 10.4082 20.2812 10.4082 20.3124C10.4082 20.3385 10.352 20.3645 10.2857 20.3645C10.2143 20.3645 10.1275 20.401 10.0816 20.4427C10.0357 20.4895 9.91326 20.5208 9.7755 20.5208C9.64795 20.5208 9.54081 20.5416 9.54081 20.5729C9.54081 20.5989 9.48979 20.6249 9.42346 20.6249C9.35713 20.6249 9.26019 20.6614 9.20407 20.7031C9.15305 20.7447 9.0306 20.7812 8.94387 20.7812C8.85203 20.7812 8.7755 20.802 8.7755 20.8333C8.7755 20.8593 8.69897 20.8854 8.60713 20.8854C8.5153 20.8854 8.39285 20.9218 8.33673 20.9635C8.2857 21.0052 8.16326 21.0416 8.07652 21.0416C7.98468 21.0416 7.90815 21.0624 7.90815 21.0937C7.90815 21.1197 7.83162 21.1458 7.74489 21.1458C7.65305 21.1458 7.5306 21.1822 7.47958 21.2239C7.42346 21.2656 7.30101 21.302 7.20917 21.302C7.11734 21.302 7.04081 21.3229 7.04081 21.3541C7.04081 21.3802 6.95917 21.4062 6.85713 21.4062C6.76019 21.4062 6.64285 21.4427 6.60203 21.4843C6.55611 21.526 6.46938 21.5624 6.39795 21.5624C6.33162 21.5624 6.2755 21.5833 6.2755 21.6145C6.2755 21.6406 6.16326 21.6666 6.0204 21.6666C5.88264 21.6666 5.7653 21.6874 5.7653 21.7187C5.7653 21.7447 5.67346 21.7864 5.56121 21.802C5.44897 21.8229 5.35713 21.8541 5.35713 21.8802C5.35713 21.9062 5.25509 21.927 5.12754 21.927C4.99999 21.927 4.89795 21.9479 4.89795 21.9791C4.89795 22.0052 4.84693 22.0312 4.7806 22.0312C4.71428 22.0312 4.61734 22.0677 4.56121 22.1093C4.51019 22.151 4.38775 22.1874 4.30101 22.1874C4.20917 22.1874 4.13264 22.2083 4.13264 22.2395C4.13264 22.2656 4.05611 22.2916 3.96428 22.2916C3.87244 22.2916 3.74999 22.3281 3.69387 22.3697C3.64285 22.4114 3.5204 22.4479 3.43366 22.4479C3.34183 22.4479 3.2653 22.4687 3.2653 22.4999C3.2653 22.526 3.18877 22.552 3.10203 22.552C3.01019 22.552 2.88775 22.5885 2.83672 22.6302C2.7806 22.6718 2.68366 22.7083 2.61734 22.7083C2.5357 22.7083 2.49999 22.7395 2.49999 22.8124C2.49999 22.8697 2.47958 22.9166 2.44897 22.9166C2.42346 22.9166 2.39795 22.9739 2.39795 23.0468C2.39795 23.1197 2.42346 23.177 2.44897 23.177C2.47958 23.177 2.49999 23.2135 2.49999 23.2552C2.49999 23.2968 2.5357 23.3333 2.57652 23.3333C2.61734 23.3333 2.65305 23.3541 2.65305 23.3854C2.65305 23.4114 2.69897 23.4374 2.75509 23.4374C2.81121 23.4374 2.85713 23.4114 2.85713 23.3854C2.85713 23.3541 2.94897 23.3333 3.06121 23.3333C3.17346 23.3333 3.2653 23.3124 3.2653 23.2864C3.2653 23.2604 3.38264 23.2239 3.5204 23.2031C3.66326 23.1822 3.7755 23.1458 3.7755 23.1197C3.7755 23.0937 3.85713 23.0729 3.95407 23.0729C4.05101 23.0729 4.13264 23.052 4.13264 23.026C4.13264 23.0052 4.23979 22.9687 4.37244 22.9531C4.50509 22.9374 4.62244 22.901 4.63264 22.8697C4.64285 22.8385 4.72958 22.8124 4.82652 22.8124C4.92346 22.8124 4.99999 22.7864 4.99999 22.7604C4.99999 22.7291 5.08162 22.7083 5.18366 22.7083C5.2806 22.7083 5.39795 22.6718 5.43877 22.6302C5.48468 22.5885 5.59693 22.552 5.69387 22.552C5.79081 22.552 5.86734 22.526 5.86734 22.4999C5.86734 22.4687 5.94387 22.4479 6.0357 22.4479C6.12244 22.4479 6.24489 22.4114 6.29591 22.3697C6.35203 22.3281 6.47448 22.2916 6.56632 22.2916C6.65815 22.2916 6.73468 22.2656 6.73468 22.2395C6.73468 22.2083 6.81632 22.1874 6.91836 22.1874C7.0153 22.1874 7.13264 22.151 7.17346 22.1093C7.21938 22.0677 7.32142 22.0312 7.40305 22.0312C7.48468 22.0312 7.55101 22.0052 7.55101 21.9791C7.55101 21.9479 7.65305 21.927 7.7806 21.927C7.90815 21.927 8.01019 21.9062 8.01019 21.8749C8.01019 21.8489 8.10203 21.8072 8.21428 21.7916C8.32652 21.7708 8.41836 21.7395 8.41836 21.7135C8.41836 21.6874 8.51019 21.6666 8.62244 21.6666C8.73468 21.6666 8.82652 21.6458 8.82652 21.6197C8.82652 21.5885 8.92856 21.552 9.05611 21.5312C9.18366 21.5156 9.2857 21.4791 9.2857 21.4531C9.2857 21.427 9.37754 21.4062 9.48979 21.4062C9.60203 21.4062 9.69387 21.3854 9.69387 21.3593C9.69387 21.3385 9.79081 21.302 9.90815 21.2864C10.0306 21.2708 10.1326 21.2291 10.1428 21.2031C10.1531 21.1718 10.25 21.1458 10.3622 21.1458C10.4694 21.1458 10.5612 21.1197 10.5612 21.0937C10.5612 21.0624 10.6326 21.0416 10.7194 21.0416C10.8061 21.0416 10.9082 21.0052 10.949 20.9635C10.9949 20.9218 11.0969 20.8854 11.1786 20.8854C11.2602 20.8854 11.3265 20.8593 11.3265 20.8333C11.3265 20.802 11.4031 20.7812 11.5 20.7812C11.5969 20.7812 11.7092 20.7447 11.7551 20.7031C11.7959 20.6614 11.8979 20.6249 11.9847 20.6249C12.0714 20.6249 12.1428 20.5989 12.1428 20.5729C12.1428 20.5416 12.2041 20.5208 12.2755 20.5208C12.3469 20.5208 12.4388 20.4843 12.4796 20.4427C12.5255 20.401 12.6122 20.3645 12.6837 20.3645C12.75 20.3645 12.8061 20.3385 12.8061 20.3124C12.8061 20.2812 12.8622 20.2604 12.9337 20.2604C13.0051 20.2604 13.0612 20.2395 13.0612 20.2083C13.0612 20.1822 13.1428 20.1458 13.2398 20.1249C13.3367 20.1093 13.4184 20.0729 13.4184 20.0468C13.4184 20.0208 13.4745 19.9999 13.5459 19.9999C13.6173 19.9999 13.6735 19.9791 13.6735 19.9479C13.6735 19.9218 13.7296 19.8854 13.801 19.8645C13.8724 19.8489 13.9286 19.8124 13.9286 19.7864C13.9286 19.7604 13.9796 19.7395 14.0357 19.7395C14.0969 19.7395 14.2194 19.6614 14.3061 19.5677C14.3928 19.4739 14.5051 19.3802 14.5561 19.3593C14.6122 19.3385 14.6633 19.276 14.6786 19.2187C14.6939 19.1614 14.7245 19.1145 14.75 19.1145C14.7755 19.1145 14.7959 19.0781 14.7959 19.0364C14.7959 18.9947 14.8316 18.9583 14.8724 18.9583C14.9133 18.9583 14.949 18.9322 14.949 18.9062C14.949 18.8749 14.9949 18.8541 15.051 18.8541C15.1071 18.8541 15.1531 18.8749 15.1531 18.9062C15.1531 18.9322 15.1888 18.9583 15.2296 18.9583C15.2704 18.9583 15.3061 18.9947 15.3061 19.0364C15.3061 19.0781 15.3265 19.1145 15.3571 19.1145C15.3826 19.1145 15.4184 19.1718 15.4388 19.2447C15.4541 19.3177 15.4898 19.3749 15.5153 19.3749C15.5408 19.3749 15.5612 19.4218 15.5612 19.4791C15.5612 19.5364 15.5408 19.5833 15.5102 19.5833C15.4847 19.5833 15.4592 19.6302 15.4592 19.6822C15.4592 19.7968 15.301 20.1041 15.2449 20.1041C15.2194 20.1041 15.2041 20.1406 15.2041 20.1822C15.2041 20.2239 15.1786 20.2604 15.148 20.2604C15.0765 20.2604 14.949 20.3906 14.949 20.4635C14.949 20.4947 14.9235 20.5208 14.898 20.5208C14.8673 20.5208 14.7806 20.5781 14.7041 20.651C14.6275 20.7239 14.5408 20.7812 14.5051 20.7812C14.4694 20.7812 14.4388 20.802 14.4388 20.8229C14.4388 20.8489 14.3571 20.9114 14.2602 20.9687C14.1633 21.0208 14.0816 21.0833 14.0816 21.1041C14.0816 21.1302 14.0459 21.1458 14.0051 21.1458C13.9643 21.1458 13.9286 21.1666 13.9286 21.1979C13.9286 21.2239 13.8724 21.2604 13.801 21.2812C13.7296 21.2968 13.6735 21.3333 13.6735 21.3593C13.6735 21.3854 13.6428 21.4062 13.602 21.4062C13.5102 21.4062 13.2143 21.5729 13.2143 21.6249C13.2143 21.651 13.1786 21.6666 13.1377 21.6666C13.0969 21.6666 13.0612 21.6874 13.0612 21.7135C13.0612 21.7395 13.0051 21.776 12.9337 21.7916C12.8622 21.8124 12.8061 21.8489 12.8061 21.8749C12.8061 21.9062 12.75 21.927 12.6786 21.927C12.6071 21.927 12.551 21.9479 12.551 21.9739C12.551 21.9999 12.4949 22.0364 12.4235 22.052C12.352 22.0729 12.2959 22.1093 12.2959 22.1354C12.2959 22.1666 12.2398 22.1874 12.1684 22.1874C12.0969 22.1874 12.0408 22.2083 12.0408 22.2395C12.0408 22.2656 11.9949 22.2916 11.9388 22.2916C11.8826 22.2916 11.8214 22.3281 11.8061 22.3697C11.7857 22.4114 11.7194 22.4479 11.6531 22.4479C11.5867 22.4479 11.5306 22.4687 11.5306 22.4999C11.5306 22.526 11.4847 22.552 11.4286 22.552C11.3724 22.552 11.3112 22.5885 11.2959 22.6302C11.2755 22.6718 11.2092 22.7083 11.1428 22.7083C11.0765 22.7083 11.0204 22.7291 11.0204 22.7604C11.0204 22.7864 10.9643 22.8124 10.8979 22.8124C10.8265 22.8124 10.7398 22.8489 10.6939 22.8906C10.6531 22.9322 10.5714 22.9687 10.5153 22.9687C10.4541 22.9687 10.4082 22.9895 10.4082 23.0208C10.4082 23.0468 10.352 23.0729 10.2806 23.0729C10.2092 23.0729 10.1531 23.0937 10.1531 23.1249C10.1531 23.151 10.0714 23.1874 9.97448 23.2083C9.87754 23.2239 9.79591 23.2604 9.79591 23.2864C9.79591 23.3124 9.73468 23.3333 9.66326 23.3333C9.59183 23.3333 9.49999 23.3697 9.45917 23.4114C9.41326 23.4531 9.33673 23.4895 9.2857 23.4895C9.23468 23.4895 9.17346 23.5104 9.15815 23.5416C9.14285 23.5677 9.06121 23.5937 8.97448 23.5937C8.89285 23.5937 8.82652 23.6145 8.82652 23.6458C8.82652 23.6718 8.7806 23.6979 8.72958 23.6979C8.67346 23.6979 8.59693 23.7343 8.55101 23.776C8.51019 23.8177 8.40815 23.8541 8.32142 23.8541C8.23468 23.8541 8.16326 23.8749 8.16326 23.9062C8.16326 23.9322 8.11224 23.9583 8.04591 23.9583C7.97958 23.9583 7.88264 23.9947 7.82652 24.0364C7.7755 24.0781 7.65305 24.1145 7.56632 24.1145C7.47448 24.1145 7.39795 24.1354 7.39795 24.1666C7.39795 24.1927 7.34693 24.2187 7.2806 24.2187C7.21428 24.2187 7.11734 24.2552 7.06121 24.2968C7.01019 24.3385 6.88775 24.3749 6.80101 24.3749C6.70917 24.3749 6.63264 24.3958 6.63264 24.427C6.63264 24.4531 6.56121 24.4791 6.47448 24.4791C6.38775 24.4791 6.2857 24.5156 6.24489 24.5572C6.19897 24.5989 6.09693 24.6354 6.0153 24.6354C5.93366 24.6354 5.86734 24.6562 5.86734 24.6874C5.86734 24.7135 5.82652 24.7395 5.7755 24.7395C5.56632 24.7395 5.54081 25.3072 5.74489 25.3854C5.85203 25.427 6.37754 25.3593 6.37754 25.3072C6.37754 25.2812 6.45917 25.2604 6.56121 25.2604C6.65815 25.2604 6.7755 25.2239 6.81632 25.1822C6.86224 25.1406 6.94897 25.1041 7.0204 25.1041C7.08673 25.1041 7.14285 25.0781 7.14285 25.052C7.14285 25.0208 7.22448 24.9999 7.32142 24.9999C7.41836 24.9999 7.49999 24.9791 7.49999 24.9479C7.49999 24.9218 7.59183 24.8802 7.70407 24.8645C7.81632 24.8437 7.90815 24.8124 7.90815 24.7864C7.90815 24.7604 7.96428 24.7395 8.0357 24.7395C8.10713 24.7395 8.16326 24.7187 8.16326 24.6927C8.16326 24.6666 8.25509 24.6354 8.36734 24.6145C8.47958 24.5989 8.57142 24.5572 8.57142 24.5312C8.57142 24.4999 8.65305 24.4791 8.74999 24.4791C8.84693 24.4791 8.92856 24.4531 8.92856 24.427C8.92856 24.3958 8.98468 24.3749 9.05101 24.3749C9.12244 24.3749 9.20917 24.3385 9.25509 24.2968C9.29591 24.2552 9.37754 24.2187 9.43366 24.2187C9.49489 24.2187 9.54081 24.1927 9.54081 24.1666C9.54081 24.1354 9.59693 24.1145 9.66326 24.1145C9.73468 24.1145 9.82142 24.0781 9.86734 24.0364C9.90815 23.9947 9.99999 23.9583 10.0714 23.9583C10.1428 23.9583 10.2041 23.9322 10.2041 23.9062C10.2041 23.8749 10.2704 23.8541 10.352 23.8541C10.4337 23.8541 10.5102 23.8229 10.5306 23.776C10.5459 23.7343 10.6173 23.6979 10.6888 23.6979C10.7602 23.6979 10.8163 23.6718 10.8163 23.6458C10.8163 23.6145 10.8622 23.5937 10.9235 23.5937C10.9796 23.5937 11.0612 23.5572 11.102 23.5156C11.1479 23.4739 11.2347 23.4374 11.3061 23.4374C11.3724 23.4374 11.4286 23.4114 11.4286 23.3854C11.4286 23.3541 11.4847 23.3333 11.5561 23.3333C11.6275 23.3333 11.6837 23.3124 11.6837 23.2812C11.6837 23.2552 11.7398 23.2187 11.8112 23.1979C11.8826 23.1822 11.9388 23.1458 11.9388 23.1197C11.9388 23.0937 11.9949 23.0729 12.0663 23.0729C12.1377 23.0729 12.1939 23.0468 12.1939 23.0208C12.1939 22.9895 12.2245 22.9687 12.2653 22.9687C12.352 22.9687 12.6735 22.802 12.6939 22.7447C12.7041 22.7239 12.7449 22.7083 12.7806 22.7083C12.8673 22.7083 13.1633 22.5364 13.1633 22.4843C13.1633 22.4635 13.2194 22.4479 13.2857 22.4479C13.352 22.4479 13.4184 22.4114 13.4388 22.3697C13.4541 22.3281 13.5153 22.2916 13.5714 22.2916C13.6275 22.2916 13.6735 22.2656 13.6735 22.2395C13.6735 22.2083 13.7092 22.1874 13.75 22.1874C13.7908 22.1874 13.8265 22.1666 13.8265 22.1354C13.8265 22.1093 13.8826 22.0729 13.9541 22.052C14.0255 22.0364 14.0816 21.9999 14.0816 21.9739C14.0816 21.9479 14.1173 21.927 14.1582 21.927C14.2041 21.927 14.2908 21.8697 14.3571 21.7968C14.4235 21.7239 14.5255 21.6666 14.5867 21.6666C14.6428 21.6666 14.6939 21.6406 14.6939 21.6093C14.6939 21.526 14.8265 21.4062 14.9184 21.4062C15.0255 21.4062 15.9694 20.4427 15.9694 20.3385C15.9694 20.2968 15.9949 20.2604 16.0204 20.2604C16.051 20.2604 16.0714 20.2031 16.0714 20.1354C16.0714 20.0677 16.102 19.9999 16.1377 19.9843C16.2245 19.9583 16.2194 18.9999 16.1326 18.9687C16.0969 18.9583 16.0714 18.901 16.0714 18.8437C16.0714 18.7343 15.9592 18.5937 15.8724 18.5937C15.8418 18.5937 15.8163 18.5677 15.8163 18.5364C15.8163 18.4635 15.6888 18.3333 15.6173 18.3333C15.5867 18.3333 15.5612 18.3124 15.5612 18.2812C15.5612 18.2552 15.5051 18.2187 15.4337 18.1979C15.3622 18.1822 15.3061 18.1458 15.3061 18.1197C15.3061 18.0937 15.2704 18.0729 15.2296 18.0729C15.1888 18.0729 15.1531 18.0468 15.1531 18.0208C15.1531 17.9895 15.1122 17.9687 15.0561 17.9687C15.0051 17.9687 14.9337 17.9322 14.898 17.8906C14.8622 17.8489 14.7806 17.8124 14.7143 17.8124C14.648 17.8124 14.5918 17.7864 14.5918 17.7604C14.5918 17.7291 14.551 17.7083 14.4949 17.7083C14.4439 17.7083 14.3724 17.6718 14.3367 17.6302C14.301 17.5885 14.2296 17.552 14.1786 17.552C14.0663 17.552 14.051 17.4739 14.1582 17.4322C14.2704 17.3854 16.1735 17.4583 16.1735 17.5104C16.1735 17.5312 16.1326 17.552 16.0816 17.552C15.9286 17.552 15.8163 17.7395 15.8163 17.9947C15.8163 18.1666 15.8367 18.2291 15.8928 18.2291C15.9337 18.2291 15.9694 18.2499 15.9694 18.2812C15.9694 18.3124 16.1377 18.3333 16.3724 18.3333C16.8112 18.3333 16.8367 18.3177 16.8367 18.0052C16.8367 17.7916 16.7959 17.7343 16.6122 17.6874C16.4745 17.651 16.3265 17.5416 16.3265 17.4791C16.3265 17.4635 16.4082 17.4479 16.5051 17.4479C16.602 17.4479 16.6837 17.4687 16.6837 17.4999C16.6837 17.5312 16.8775 17.552 17.1633 17.552C17.4745 17.552 17.7041 17.5781 17.8214 17.6302C17.9235 17.6718 18.1326 17.7083 18.2908 17.7083C18.4439 17.7083 18.5714 17.7291 18.5714 17.7552C18.5714 17.7812 18.6939 17.8124 18.8418 17.8281C19.1633 17.8593 19.5918 17.9791 19.5918 18.0312C19.5918 18.0572 19.6837 18.0729 19.7908 18.0729C19.9031 18.0729 20.0102 18.0937 20.0255 18.1249C20.0408 18.151 20.102 18.177 20.1531 18.177C20.2041 18.177 20.2806 18.2135 20.3265 18.2552C20.3673 18.2968 20.4694 18.3333 20.5561 18.3333C20.6428 18.3333 20.7143 18.3541 20.7143 18.3854C20.7143 18.4114 20.7959 18.4479 20.8928 18.4687C20.9898 18.4843 21.0714 18.5208 21.0714 18.5468C21.0714 18.5729 21.1275 18.5937 21.199 18.5937C21.2704 18.5937 21.3265 18.6145 21.3265 18.6406C21.3265 18.6666 21.3826 18.7031 21.4541 18.7187C21.5255 18.7395 21.5816 18.776 21.5816 18.802C21.5816 18.8333 21.6377 18.8541 21.7092 18.8541C21.7806 18.8541 21.8367 18.8749 21.8367 18.9062C21.8367 18.9322 21.8724 18.9583 21.9133 18.9583C21.9541 18.9583 21.9898 18.9791 21.9898 19.0052C21.9898 19.0312 22.0408 19.0729 22.102 19.0937C22.1633 19.1093 22.2653 19.1822 22.3316 19.2499C22.398 19.3177 22.4745 19.3749 22.5051 19.3749C22.5816 19.3749 23.3673 20.2083 23.3673 20.2916C23.3673 20.3333 23.3928 20.3645 23.4184 20.3645C23.449 20.3645 23.4694 20.4218 23.4694 20.4895C23.4694 20.5572 23.5051 20.6249 23.5459 20.6458C23.5867 20.6614 23.6224 20.7343 23.6224 20.8072C23.6224 20.8802 23.648 20.9374 23.6735 20.9374C23.7041 20.9374 23.7245 21.1093 23.7245 21.3541C23.7245 21.5989 23.7041 21.7708 23.6735 21.7708C23.648 21.7708 23.6224 21.8385 23.6224 21.9218C23.6224 22.0052 23.5867 22.1093 23.5459 22.1562C23.5051 22.1979 23.4694 22.2812 23.4694 22.3385C23.4694 22.401 23.449 22.4479 23.4184 22.4479C23.3928 22.4479 23.3673 22.5052 23.3673 22.5781C23.3673 22.6614 23.3367 22.7083 23.2908 22.7083C23.25 22.7083 23.2143 22.7552 23.2143 22.8124C23.2143 22.8697 23.1939 22.9166 23.1633 22.9166C23.1377 22.9166 23.1122 22.9479 23.1122 22.9895C23.1122 23.0312 23.0765 23.0729 23.0357 23.0937C22.9949 23.1093 22.9592 23.1562 22.9592 23.2031C22.9592 23.276 21.5714 24.7395 21.5 24.7395C21.4286 24.7395 21.3316 24.927 21.3265 25.0677C21.3265 25.2812 21.4592 25.3906 21.7092 25.3906C21.9133 25.3906 21.9439 25.3645 22.6939 24.5989C23.1224 24.1666 23.4694 23.7916 23.4694 23.776C23.4694 23.7552 23.5 23.7083 23.5357 23.6718C23.6837 23.4999 23.7245 23.4374 23.7245 23.3854C23.7245 23.3593 23.7449 23.3333 23.7755 23.3333C23.801 23.3333 23.8367 23.276 23.8571 23.2031C23.8724 23.1302 23.9082 23.0729 23.9337 23.0729C23.9592 23.0729 23.9796 23.0364 23.9796 22.9947C23.9796 22.9531 24.0051 22.9166 24.0306 22.9166C24.0612 22.9166 24.0816 22.8749 24.0816 22.8229C24.0816 22.7708 24.1173 22.6822 24.1582 22.6249C24.199 22.5729 24.2347 22.4739 24.2347 22.4062C24.2347 22.3437 24.2602 22.2916 24.2857 22.2916C24.3163 22.2916 24.3367 22.2291 24.3367 22.1562C24.3367 22.0833 24.3724 21.8906 24.4184 21.7343C24.4643 21.5677 24.4898 21.3593 24.4745 21.2343C24.4337 20.9322 24.3214 20.5208 24.2755 20.5208C24.25 20.5208 24.2347 20.4687 24.2347 20.401C24.2347 20.2395 24.1224 19.9999 24.0459 19.9999C24.0102 19.9999 23.9796 19.9427 23.9796 19.8697C23.9796 19.7864 23.949 19.7395 23.9031 19.7395C23.8622 19.7395 23.8265 19.7135 23.8265 19.6822C23.8265 19.6458 23.6684 19.4635 23.4694 19.2656C23.2755 19.0729 23.1122 18.901 23.1122 18.8854C23.1122 18.8697 23.1684 18.8541 23.2398 18.8541C23.3112 18.8541 23.3673 18.8749 23.3673 18.9062C23.3673 18.9322 23.4133 18.9583 23.4745 18.9583C23.5306 18.9583 23.6122 18.9947 23.6531 19.0364C23.699 19.0781 23.7857 19.1145 23.8571 19.1145C23.9235 19.1145 23.9796 19.1354 23.9796 19.1614C23.9796 19.1874 24.0357 19.2239 24.1071 19.2395C24.1786 19.2604 24.2347 19.2968 24.2347 19.3229C24.2347 19.3541 24.2806 19.3749 24.3367 19.3749C24.3928 19.3749 24.4388 19.3906 24.4388 19.4114C24.4388 19.4374 24.5306 19.4999 24.6428 19.552C24.7551 19.6093 24.8469 19.6718 24.8469 19.6979C24.8469 19.7187 24.8928 19.7395 24.949 19.7395C25.0051 19.7395 25.1326 19.8229 25.2245 19.9218C25.3214 20.0208 25.4235 20.1041 25.4541 20.1041C25.5357 20.1041 26.2245 20.8124 26.2245 20.901C26.2245 20.9427 26.2806 21.0208 26.352 21.0729C26.4235 21.1249 26.4796 21.2187 26.4796 21.2812C26.4796 21.3437 26.5153 21.4062 26.5561 21.427C26.602 21.4427 26.6326 21.5208 26.6326 21.6145C26.6326 21.6979 26.6582 21.7708 26.6837 21.7708C26.7143 21.7708 26.7347 21.8385 26.7347 21.9218C26.7347 22.0052 26.7704 22.1406 26.8112 22.2187C26.9133 22.4218 26.9133 23.2187 26.8112 23.4739C26.7704 23.5729 26.7347 23.7499 26.7347 23.8593C26.7347 23.9739 26.7143 24.0624 26.6837 24.0624C26.6582 24.0624 26.6326 24.1302 26.6326 24.2135C26.6326 24.2968 26.5969 24.401 26.5561 24.4479C26.4592 24.5468 26.4592 24.7083 26.5561 24.8124C26.5969 24.8541 26.6326 24.9114 26.6326 24.9427C26.6326 24.9739 26.7245 24.9999 26.8367 24.9999C27.0867 24.9999 27.2449 24.8593 27.2449 24.6354C27.2449 24.5468 27.2653 24.4791 27.2959 24.4791C27.3214 24.4791 27.3571 24.3958 27.3775 24.2968C27.3928 24.1979 27.4286 24.0989 27.4541 24.0833C27.4796 24.0677 27.5 23.927 27.5 23.7708C27.5 23.6145 27.5255 23.4895 27.551 23.4895C27.5816 23.4895 27.602 23.2395 27.602 22.8385C27.602 22.4374 27.5816 22.1874 27.551 22.1874C27.5255 22.1874 27.5 22.0677 27.5 21.927C27.5 21.7812 27.4796 21.6666 27.449 21.6666C27.4235 21.6666 27.3877 21.5833 27.3673 21.4843C27.352 21.3854 27.3163 21.302 27.2908 21.302C27.2653 21.302 27.2449 21.2447 27.2449 21.1718C27.2449 21.0989 27.2245 21.0416 27.199 21.0416C27.1735 21.0416 27.1377 20.9843 27.1224 20.9114C27.102 20.8385 27.0663 20.7812 27.0408 20.7812C27.0102 20.7812 26.9898 20.7552 26.9898 20.7239C26.9898 20.6927 26.9592 20.6354 26.9286 20.5989C26.7857 20.4374 26.7347 20.3697 26.7347 20.3385C26.7347 20.2864 26.5918 20.1562 26.5357 20.1562C26.5051 20.1562 26.4796 20.1302 26.4796 20.0989C26.4796 20.026 26.352 19.8958 26.2806 19.8958C26.25 19.8958 26.2245 19.8593 26.2245 19.8177C26.2245 19.776 26.199 19.7395 26.1735 19.7395C26.1173 19.7395 26.0459 19.6874 25.8418 19.4895C25.7755 19.427 25.6939 19.3749 25.6633 19.3749C25.6377 19.3749 25.6122 19.3385 25.6122 19.2968C25.6122 19.2552 25.5663 19.2187 25.5102 19.2187C25.4541 19.2187 25.4082 19.1927 25.4082 19.1666C25.4082 19.1354 25.3775 19.1145 25.3367 19.1145C25.2959 19.1145 25.2551 19.0781 25.2347 19.0364C25.2194 18.9947 25.1582 18.9583 25.102 18.9583C25.0459 18.9583 25 18.9322 25 18.9062C25 18.8749 24.9643 18.8541 24.9235 18.8541C24.8826 18.8541 24.8469 18.8333 24.8469 18.802C24.8469 18.776 24.7908 18.7395 24.7194 18.7187C24.648 18.7031 24.5918 18.6666 24.5918 18.6406C24.5918 18.6145 24.5357 18.5937 24.4643 18.5937C24.3928 18.5937 24.3367 18.5729 24.3367 18.5416C24.3367 18.5156 24.2806 18.4791 24.2092 18.4583C24.1377 18.4427 24.0816 18.4062 24.0816 18.3802C24.0816 18.3541 24.0153 18.3333 23.9286 18.3333C23.8469 18.3333 23.7755 18.3124 23.7755 18.2864C23.7755 18.2604 23.7092 18.2239 23.6224 18.2031C23.5408 18.1822 23.4694 18.1458 23.4694 18.1197C23.4694 18.0937 23.3877 18.0729 23.2908 18.0729C23.1939 18.0729 23.1122 18.0468 23.1122 18.0208C23.1122 17.9895 23.0612 17.9687 22.9949 17.9687C22.9286 17.9687 22.8316 17.9322 22.7755 17.8906C22.7245 17.8489 22.602 17.8124 22.5153 17.8124C22.4235 17.8124 22.3469 17.7864 22.3469 17.7604C22.3469 17.7291 22.2704 17.7083 22.1837 17.7083C22.0918 17.7083 21.9694 17.6718 21.9184 17.6302C21.8622 17.5885 21.7296 17.552 21.6224 17.552C21.5153 17.552 21.4286 17.526 21.4286 17.4999C21.4286 17.4687 21.3316 17.4479 21.2092 17.4479C21.0867 17.4479 20.9439 17.4114 20.8877 17.3697C20.8316 17.3281 20.6786 17.2968 20.5255 17.2916C20.3775 17.2916 20.2551 17.2656 20.2551 17.2395C20.2551 17.2083 20.1122 17.1874 19.9286 17.1874C19.7398 17.1874 19.5918 17.1614 19.5816 17.1302C19.5714 17.0989 19.3724 17.0624 19.1428 17.0468C18.9133 17.0312 18.7245 16.9999 18.7245 16.9739C18.7245 16.9531 18.5102 16.9218 18.2551 16.9062C17.3673 16.8593 16.4286 16.7552 16.4286 16.7135C16.4286 16.6874 14.9388 16.6666 13.1122 16.6666C10.7857 16.6666 9.79591 16.6822 9.79591 16.7239Z" fill="url(#paint3_linear_18_534)"/>
<path d="M17.8367 18.4167C17.7806 18.5678 17.8061 18.849 17.8826 18.9167C17.9286 18.9532 17.9949 19.0157 18.0357 19.0469C18.0714 19.0834 18.1173 19.1146 18.1377 19.1146C18.1888 19.1146 18.3163 19.2605 18.3163 19.3178C18.3163 19.349 18.3418 19.3751 18.3724 19.3751C18.403 19.3751 18.4592 19.4063 18.5 19.448C18.5408 19.4896 18.5714 19.5469 18.5714 19.5782C18.5714 19.6824 18.8979 19.6407 18.9949 19.5313C19.1581 19.3334 19.0765 18.8542 18.8826 18.8542C18.852 18.8542 18.8265 18.8282 18.8265 18.7969C18.8265 18.7396 18.699 18.5938 18.6479 18.5938C18.5969 18.5938 18.4694 18.448 18.4694 18.3907C18.4694 18.3542 18.3469 18.3334 18.1683 18.3334C17.9439 18.3334 17.8622 18.3542 17.8367 18.4167Z" fill="url(#paint4_linear_18_534)"/>
<path d="M18.4694 20.7031C18.4694 20.7448 18.4337 20.7812 18.3929 20.7812C18.347 20.7812 18.3164 20.8281 18.3164 20.901C18.3164 20.9635 18.2602 21.0625 18.1888 21.1146C18.1174 21.1667 18.0613 21.2552 18.0613 21.3073C18.0613 21.3646 18.0409 21.4062 18.0102 21.4062C17.9847 21.4062 17.9592 21.4427 17.9592 21.4844C17.9592 21.526 17.9388 21.5625 17.9082 21.5625C17.8827 21.5625 17.8572 21.6094 17.8572 21.6615C17.8572 21.7187 17.8827 21.7812 17.9082 21.7969C17.9388 21.8125 17.9592 21.875 17.9592 21.9323C17.9592 22.0156 17.9949 22.0312 18.1939 22.0312C18.398 22.0312 18.5715 21.9479 18.5715 21.849C18.5715 21.8177 18.6225 21.75 18.7653 21.5885C18.796 21.5521 18.8266 21.4948 18.8266 21.4635C18.8266 21.4323 18.847 21.4062 18.8776 21.4062C18.9031 21.4062 18.9388 21.349 18.9592 21.276C18.9745 21.2031 19.0102 21.1458 19.0357 21.1458C19.1174 21.1458 19.0868 20.8385 18.9949 20.7292C18.8827 20.599 18.4694 20.5781 18.4694 20.7031Z" fill="url(#paint5_linear_18_534)"/>
<path d="M16.7858 22.6302C16.7501 22.6718 16.6889 22.7083 16.6532 22.7083C16.6123 22.7083 16.5817 22.7291 16.5817 22.7604C16.5817 22.7864 16.546 22.8125 16.5052 22.8125C16.4644 22.8125 16.4287 22.8385 16.4287 22.8698C16.4287 22.9375 16.3011 23.0729 16.2348 23.0729C16.1021 23.0729 15.9695 23.276 15.9695 23.4843C15.9695 23.5989 15.995 23.6979 16.0205 23.6979C16.0511 23.6979 16.0715 23.7343 16.0715 23.776C16.0715 23.8333 16.1327 23.8541 16.296 23.8541C16.4695 23.8541 16.5358 23.8281 16.6123 23.7239C16.6634 23.651 16.7246 23.5937 16.7501 23.5937C16.7858 23.5937 16.8521 23.5468 17.0154 23.3958C17.0511 23.3645 17.1072 23.3333 17.1378 23.3333C17.1685 23.3333 17.194 23.302 17.194 23.2604C17.194 23.2187 17.2144 23.177 17.2399 23.1666C17.3317 23.1302 17.3572 22.8281 17.2756 22.7448C17.2297 22.6979 17.194 22.6406 17.194 22.6093C17.194 22.5208 16.8572 22.5416 16.7858 22.6302Z" fill="url(#paint6_linear_18_534)"/>
<path d="M14.6938 24.1614C14.6938 24.1875 14.6377 24.2239 14.5662 24.2395C14.4948 24.2604 14.4387 24.2968 14.4387 24.3229C14.4387 24.3541 14.4132 24.375 14.3826 24.375C14.2652 24.375 14.1836 24.5312 14.1836 24.7604C14.1836 24.9375 14.204 25 14.2601 25C14.3009 25 14.3367 25.0208 14.3367 25.052C14.3367 25.0781 14.4183 25.1041 14.5152 25.1041C14.6122 25.1041 14.6938 25.0781 14.6938 25.052C14.6938 25.0208 14.7295 25 14.7703 25C14.8162 25 14.903 24.9427 14.9693 24.8698C15.0356 24.7968 15.1173 24.7395 15.1479 24.7395C15.1887 24.7395 15.204 24.6614 15.1938 24.5156C15.1836 24.3489 15.153 24.2864 15.0662 24.2448C14.9999 24.2187 14.9489 24.177 14.9489 24.1562C14.9489 24.1302 14.8928 24.1145 14.8213 24.1145C14.7499 24.1145 14.6938 24.1354 14.6938 24.1614Z" fill="url(#paint7_linear_18_534)"/>
<path d="M7.65305 29.4271C7.65305 29.4531 7.5204 29.4792 7.36223 29.4792C7.18366 29.4844 7.0255 29.5104 6.96938 29.5573C6.91326 29.599 6.79081 29.6354 6.69897 29.6354C6.60713 29.6354 6.5306 29.6562 6.5306 29.6875C6.5306 29.7135 6.47448 29.7396 6.40815 29.7396C6.33672 29.7396 6.2653 29.7604 6.24999 29.7917C6.23468 29.8177 6.17346 29.8437 6.12244 29.8437C6.07142 29.8437 5.99489 29.8802 5.94897 29.9219C5.90815 29.9635 5.82652 30 5.7704 30C5.70917 30 5.66326 30.0208 5.66326 30.0469C5.66326 30.0729 5.60713 30.1094 5.5357 30.125C5.46428 30.1458 5.40815 30.1823 5.40815 30.2083C5.40815 30.2396 5.35203 30.2604 5.2806 30.2604C5.20917 30.2604 5.15305 30.2812 5.15305 30.3125C5.15305 30.3385 5.11734 30.3646 5.07652 30.3646C5.0357 30.3646 4.99999 30.3854 4.99999 30.4115C4.99999 30.4375 4.94897 30.4792 4.88775 30.5C4.82652 30.5156 4.72448 30.5885 4.65815 30.6562C4.59183 30.724 4.5153 30.7812 4.48468 30.7812C4.40815 30.7812 3.2653 31.9687 3.2653 32.0469C3.2653 32.0885 3.20917 32.1667 3.13775 32.2187C3.06632 32.2708 3.01019 32.3594 3.01019 32.4115C3.01019 32.4635 2.95407 32.5573 2.88264 32.625C2.80101 32.7031 2.75509 32.8021 2.75509 32.9115C2.75509 33 2.73468 33.0729 2.70917 33.0729C2.63775 33.0729 2.49999 33.5052 2.49999 33.7396C2.49999 33.8594 2.47958 33.9583 2.44897 33.9583C2.41836 33.9583 2.39795 34.1927 2.39795 34.5573C2.39795 34.9219 2.41836 35.1562 2.44897 35.1562C2.47958 35.1562 2.49999 35.3125 2.49999 35.5208C2.49999 35.7187 2.5204 35.8854 2.54591 35.8854C2.57142 35.8854 2.60203 35.9792 2.62244 36.0937C2.63775 36.2083 2.67856 36.3021 2.70407 36.3021C2.73468 36.3021 2.75509 36.3594 2.75509 36.4323C2.75509 36.5052 2.7755 36.5625 2.80611 36.5625C2.83162 36.5625 2.86734 36.6198 2.88775 36.6927C2.90305 36.7656 2.93877 36.8229 2.96428 36.8229C2.98979 36.8229 3.01019 36.8698 3.01019 36.9271C3.01019 36.9844 3.0357 37.0312 3.06121 37.0312C3.09183 37.0312 3.11223 37.0677 3.11223 37.1094C3.11223 37.151 3.13264 37.1875 3.15815 37.1875C3.18366 37.1875 3.22448 37.2344 3.23979 37.2969C3.2704 37.3958 3.89795 38.0729 3.95917 38.0729C4.01019 38.0729 4.13264 38.2187 4.13264 38.276C4.13264 38.3073 4.18877 38.3333 4.26019 38.3333C4.34183 38.3333 4.38775 38.3646 4.38775 38.4115C4.38775 38.4531 4.42346 38.4896 4.46428 38.4896C4.50509 38.4896 4.54081 38.5104 4.54081 38.5417C4.54081 38.5677 4.58672 38.5937 4.64285 38.5937C4.69897 38.5937 4.74489 38.6146 4.74489 38.6458C4.74489 38.6719 4.80101 38.6979 4.87244 38.6979C4.95407 38.6979 4.99999 38.7292 4.99999 38.776C4.99999 38.8281 5.05611 38.8542 5.17856 38.8542C5.2755 38.8542 5.35713 38.875 5.35713 38.9062C5.35713 38.9323 5.42346 38.9583 5.50509 38.9583C5.58672 38.9583 5.68877 38.9948 5.73468 39.0365C5.7806 39.0833 5.90305 39.1146 6.04081 39.1146C6.16836 39.1146 6.2755 39.1354 6.2755 39.1667C6.2755 39.1979 6.7704 39.2188 7.65305 39.2188C8.5357 39.2188 9.0306 39.1979 9.0306 39.1667C9.0306 39.1354 9.15815 39.1146 9.31632 39.1146C9.49999 39.1146 9.62754 39.0885 9.67346 39.0365C9.71938 38.9948 9.79591 38.9583 9.85203 38.9583C9.90305 38.9583 9.94897 38.9323 9.94897 38.9062C9.94897 38.875 9.99489 38.8542 10.0459 38.8542C10.0969 38.8542 10.1531 38.8177 10.1735 38.776C10.1888 38.7344 10.25 38.6979 10.3061 38.6979C10.3622 38.6979 10.4082 38.6719 10.4082 38.6458C10.4082 38.6146 10.4337 38.5937 10.4643 38.5937C10.4949 38.5937 10.551 38.5625 10.5867 38.526C10.7551 38.375 10.8163 38.3333 10.8673 38.3333C10.8928 38.3333 10.9184 38.3125 10.9184 38.2865C10.9184 38.2604 10.9745 38.224 11.0459 38.2083C11.1173 38.1875 11.1735 38.151 11.1735 38.125C11.1735 38.0937 11.2245 38.0729 11.2806 38.0729C11.3418 38.0729 11.4439 38.0156 11.5102 37.9427C11.5765 37.8698 11.6633 37.8125 11.7092 37.8125C11.75 37.8125 11.7857 37.7865 11.7857 37.7604C11.7857 37.7292 11.8214 37.7083 11.8622 37.7083C11.9082 37.7083 11.9388 37.6615 11.9388 37.5833C11.9388 37.5156 11.9031 37.4479 11.8622 37.4271C11.8163 37.4115 11.7857 37.3333 11.7857 37.2396C11.7857 37.1562 11.7653 37.0833 11.7347 37.0833C11.7041 37.0833 11.6837 36.849 11.6837 36.4844C11.6837 36.1042 11.7041 35.8854 11.7347 35.8854C11.7908 35.8854 11.8622 35.8333 12.0663 35.6354C12.1326 35.5729 12.2143 35.5208 12.2449 35.5208C12.2704 35.5208 12.2959 35.4844 12.2959 35.4427C12.2959 35.401 12.3214 35.3646 12.3469 35.3646C12.3775 35.3646 12.4949 35.2708 12.602 35.1615C12.7959 34.9635 12.8061 34.9427 12.8061 34.6198C12.8061 34.3594 12.7857 34.276 12.7245 34.25C12.6786 34.2344 11.5204 34.2187 10.1479 34.2187C7.96428 34.2187 7.65305 34.2292 7.65305 34.2969C7.65305 34.3385 7.63264 34.375 7.60713 34.375C7.58162 34.375 7.5204 34.4896 7.46938 34.6354C7.41836 34.776 7.35713 34.8958 7.33672 34.8958C7.31632 34.8958 7.29591 34.9531 7.29591 35.026C7.29591 35.1302 7.32142 35.1562 7.42346 35.1562C7.49489 35.1562 7.55101 35.1771 7.55101 35.2083C7.55101 35.2396 7.68877 35.2604 7.85713 35.2604C8.0255 35.2604 8.16326 35.2812 8.16326 35.3073C8.16326 35.3281 8.2704 35.3646 8.40305 35.3802C8.5357 35.3958 8.65305 35.4323 8.66326 35.4635C8.67346 35.4948 8.7857 35.5208 8.90815 35.5208H9.13264V36.6146V37.7083H8.30611C7.65305 37.7031 7.45407 37.6875 7.37754 37.6302C7.32142 37.5885 7.21428 37.5521 7.13264 37.5521C7.05611 37.5521 6.98979 37.5312 6.98979 37.5052C6.98979 37.4792 6.92856 37.4479 6.85203 37.4323C6.7704 37.4167 6.65815 37.3542 6.59693 37.2969C6.5357 37.2344 6.46938 37.1875 6.45407 37.1875C6.43366 37.1875 6.38775 37.1562 6.35203 37.125C6.18366 36.9687 6.12244 36.9271 6.07142 36.9271C6.04591 36.9271 6.0204 36.901 6.0204 36.8698C6.0204 36.8385 5.98979 36.7812 5.95917 36.7448C5.80611 36.5729 5.7653 36.5104 5.7653 36.4583C5.7653 36.4323 5.74489 36.4062 5.71938 36.4062C5.69387 36.4062 5.65815 36.349 5.64285 36.276C5.62244 36.2031 5.58672 36.1458 5.56121 36.1458C5.5306 36.1458 5.51019 36.0885 5.51019 36.0156C5.51019 35.9427 5.48979 35.8854 5.45917 35.8854C5.43366 35.8854 5.40815 35.8281 5.40815 35.7604C5.40815 35.6875 5.37244 35.599 5.33162 35.5521C5.2857 35.5052 5.25509 35.3802 5.25509 35.2396C5.25509 35.1094 5.23468 35 5.20407 35C5.17346 35 5.15305 34.6458 5.15305 34.0365C5.15305 33.4271 5.17346 33.0729 5.20407 33.0729C5.23468 33.0729 5.25509 32.9948 5.25509 32.8958C5.25509 32.7865 5.2857 32.7083 5.33162 32.6875C5.37244 32.6719 5.40815 32.599 5.40815 32.526C5.40815 32.4531 5.43366 32.3958 5.45917 32.3958C5.48979 32.3958 5.51019 32.349 5.51019 32.2917C5.51019 32.2344 5.5306 32.1875 5.55611 32.1875C5.58162 32.1875 5.62244 32.1354 5.64285 32.0729C5.65815 32.0104 5.75509 31.8854 5.84693 31.7917C5.94387 31.7031 6.0204 31.6042 6.0204 31.5677C6.0204 31.5365 6.04591 31.5104 6.07652 31.5104C6.11223 31.5104 6.17346 31.4687 6.21938 31.4115C6.2653 31.3594 6.35203 31.3021 6.41836 31.2812C6.47958 31.2604 6.5306 31.2187 6.5306 31.1927C6.5306 31.1667 6.58672 31.1458 6.65815 31.1458C6.72958 31.1458 6.7857 31.1198 6.7857 31.0937C6.7857 31.0625 6.86223 31.0417 6.95407 31.0417C7.04591 31.0417 7.16836 31.0052 7.22448 30.9635C7.35203 30.8646 7.65815 30.8646 7.89285 30.9635C7.98979 31.0052 8.13775 31.0417 8.21938 31.0417C8.30101 31.0417 8.36734 31.0625 8.36734 31.0937C8.36734 31.1198 8.42346 31.1458 8.48979 31.1458C8.55611 31.1458 8.64795 31.2031 8.70407 31.276C8.75509 31.349 8.85203 31.4062 8.91326 31.4062C8.97958 31.4062 9.0306 31.4323 9.0306 31.4635C9.0306 31.5365 9.15815 31.6667 9.22958 31.6667C9.26019 31.6667 9.2857 31.6927 9.2857 31.724C9.2857 31.7969 9.41326 31.9271 9.48468 31.9271C9.5153 31.9271 9.54081 31.974 9.54081 32.0365C9.54081 32.151 9.65305 32.2917 9.73979 32.2917C9.7704 32.2917 9.79591 32.349 9.79591 32.4219C9.79591 32.4948 9.82142 32.5521 9.84693 32.5521C9.87754 32.5521 9.89795 32.6094 9.89795 32.6823C9.89795 32.7656 9.92856 32.8125 9.97448 32.8125C10.0204 32.8125 10.051 32.8594 10.051 32.9427V33.0729H10.7908H11.5306V31.4896C11.5306 29.7865 11.5408 29.8437 11.2704 29.8437C11.2194 29.8437 11.1735 29.8177 11.1735 29.7917C11.1735 29.7604 11.0612 29.7396 10.9184 29.7396C10.7806 29.7396 10.6633 29.7187 10.6633 29.6927C10.6633 29.6719 10.5357 29.6354 10.3775 29.6198C10.2194 29.6042 10.0612 29.5625 10.0357 29.5365C10.0051 29.5052 9.79081 29.4792 9.55611 29.4792C9.30611 29.4792 9.13264 29.4583 9.13264 29.4271C9.13264 29.3958 8.85203 29.375 8.39285 29.375C7.93366 29.375 7.65305 29.3958 7.65305 29.4271Z" fill="url(#paint8_linear_18_534)"/>
<path d="M15.8162 32.5C15.8162 32.5261 15.7346 32.5521 15.6376 32.5521C15.5254 32.5521 15.4437 32.5834 15.4284 32.6302C15.408 32.6719 15.3417 32.7084 15.2754 32.7084C15.2091 32.7084 15.1529 32.7292 15.1529 32.7605C15.1529 32.7865 15.107 32.8125 15.0509 32.8125C14.9948 32.8125 14.9489 32.8334 14.9489 32.8646C14.9489 32.8907 14.8927 32.9271 14.8213 32.948C14.7499 32.9636 14.6937 33 14.6937 33.0261C14.6937 33.0521 14.6682 33.073 14.6376 33.073C14.5662 33.073 14.4386 33.2032 14.4386 33.2761C14.4386 33.3073 14.4131 33.3334 14.3876 33.3334C14.3162 33.3334 13.9284 33.724 13.9284 33.7969C13.9284 33.8282 13.908 33.8542 13.8774 33.8542C13.8519 33.8542 13.8162 33.9115 13.7958 33.9844C13.7805 34.0573 13.7448 34.1146 13.7193 34.1146C13.6937 34.1146 13.6733 34.3125 13.6733 34.5573C13.6733 34.9167 13.6886 35 13.7499 35C13.7907 35 13.8264 35.0261 13.8264 35.0521C13.8264 35.1094 13.9029 35.2136 14.0203 35.3282C14.056 35.3646 14.1427 35.4427 14.2091 35.5052C14.2754 35.573 14.357 35.625 14.3876 35.625C14.4131 35.625 14.4386 35.6615 14.4386 35.7032C14.4386 35.7448 14.4744 35.7813 14.5152 35.7813C14.556 35.7813 14.5917 35.8021 14.5917 35.8334C14.5917 35.8594 14.6376 35.8855 14.6937 35.8855C14.7499 35.8855 14.7958 35.9219 14.7958 35.9636C14.7958 36.0052 14.8315 36.0417 14.8723 36.0417C14.9131 36.0417 14.9489 36.0625 14.9489 36.0938C14.9489 36.1198 15.005 36.1459 15.0764 36.1459C15.158 36.1459 15.204 36.1771 15.204 36.224C15.204 36.2657 15.2499 36.3021 15.306 36.3021C15.3621 36.3021 15.408 36.323 15.408 36.3542C15.408 36.3802 15.4437 36.4063 15.4846 36.4063C15.5254 36.4063 15.5611 36.4271 15.5611 36.4532C15.5611 36.4792 15.6172 36.5157 15.6886 36.5313C15.7601 36.5521 15.8162 36.5886 15.8162 36.6146C15.8162 36.6459 15.8519 36.6667 15.8876 36.6667C15.9284 36.6667 16.0254 36.724 16.1019 36.7969C16.1784 36.8698 16.2703 36.9271 16.306 36.9271C16.4437 36.9271 16.6835 37.2292 16.6835 37.3959C16.6835 37.5573 16.5866 37.7084 16.4846 37.7084C16.454 37.7084 16.4284 37.7292 16.4284 37.7605C16.4284 37.7865 16.3468 37.8125 16.2499 37.8125C16.1529 37.8125 16.0713 37.7865 16.0713 37.7605C16.0713 37.7292 15.9948 37.7084 15.8978 37.7084C15.806 37.7084 15.6989 37.6719 15.6631 37.6302C15.6274 37.5886 15.5662 37.5521 15.5254 37.5521C15.4591 37.5521 15.408 37.5157 15.2295 37.3542C15.1937 37.323 15.1478 37.2917 15.1325 37.2917C15.0815 37.2917 14.6937 36.875 14.6937 36.823C14.6937 36.7917 14.6733 36.7709 14.6478 36.7709C14.6223 36.7709 14.5815 36.724 14.5662 36.6667C14.5356 36.573 14.4897 36.5625 14.1019 36.5625H13.6733V37.6563C13.6733 38.5938 13.6835 38.75 13.7499 38.75C13.7907 38.75 13.8264 38.7709 13.8264 38.8021C13.8264 38.8282 13.9437 38.8542 14.0815 38.8542C14.2244 38.8542 14.3366 38.875 14.3366 38.9063C14.3366 38.9323 14.4591 38.9584 14.6121 38.9584C14.7601 38.9584 14.9693 38.9948 15.0662 39.0365C15.3366 39.1511 17.1529 39.1511 17.2448 39.0365C17.2805 38.9948 17.3723 38.9584 17.454 38.9584C17.5356 38.9584 17.6019 38.9323 17.6019 38.9063C17.6019 38.875 17.6478 38.8542 17.704 38.8542C17.7601 38.8542 17.806 38.8334 17.806 38.8021C17.806 38.7761 17.8621 38.7396 17.9335 38.7188C18.005 38.7032 18.0611 38.6667 18.0611 38.6407C18.0611 38.6146 18.0968 38.5938 18.1376 38.5938C18.1784 38.5938 18.2142 38.573 18.2142 38.5469C18.2142 38.5209 18.2652 38.4792 18.3264 38.4584C18.4744 38.4115 19.0815 37.7813 19.0815 37.6771C19.0815 37.6355 19.1172 37.5625 19.158 37.5209C19.1989 37.474 19.2346 37.3855 19.2346 37.3177C19.2346 37.25 19.255 37.1823 19.2805 37.1667C19.3315 37.1302 19.1989 36.5938 19.1325 36.573C19.1019 36.5625 19.0815 36.5313 19.0815 36.5C19.0815 36.4323 18.6937 36.0417 18.6223 36.0417C18.5968 36.0417 18.5713 36.0052 18.5713 35.9636C18.5713 35.9219 18.5254 35.8855 18.4693 35.8855C18.4131 35.8855 18.3672 35.8594 18.3672 35.8334C18.3672 35.8021 18.3315 35.7813 18.2907 35.7813C18.2499 35.7813 18.2142 35.7448 18.2142 35.7032C18.2142 35.6615 18.1784 35.625 18.1376 35.625C18.0968 35.625 18.0611 35.599 18.0611 35.573C18.0611 35.5417 18.005 35.5209 17.9335 35.5209C17.8519 35.5209 17.806 35.4896 17.806 35.4427C17.806 35.4011 17.7601 35.3646 17.704 35.3646C17.6478 35.3646 17.6019 35.3386 17.6019 35.3125C17.6019 35.2813 17.5662 35.2605 17.5254 35.2605C17.4846 35.2605 17.4489 35.2396 17.4489 35.2136C17.4489 35.1875 17.3927 35.1511 17.3213 35.1355C17.2499 35.1146 17.1937 35.0782 17.1937 35.0521C17.1937 35.0209 17.1427 35 17.0866 35C17.0254 35 16.9233 34.9427 16.857 34.8698C16.7907 34.7969 16.7142 34.7396 16.6835 34.7396C16.607 34.7396 16.255 34.375 16.2091 34.25C16.1886 34.198 16.2091 34.0938 16.2601 34.0052C16.3417 33.8646 16.3672 33.8542 16.6937 33.8542C16.8927 33.8542 17.0407 33.875 17.0407 33.9063C17.0407 33.9323 17.0866 33.9584 17.1427 33.9584C17.204 33.9584 17.3009 34.0157 17.3672 34.0886C17.4335 34.1615 17.4999 34.2188 17.5203 34.2188C17.5764 34.2188 17.704 34.3594 17.704 34.4219C17.704 34.4532 17.7295 34.4792 17.7601 34.4792C17.8315 34.4792 17.9591 34.6094 17.9591 34.6823C17.9591 34.7136 17.9846 34.7396 18.0101 34.7396C18.0407 34.7396 18.0611 34.7761 18.0611 34.8177C18.0611 34.8855 18.1325 34.8959 18.5101 34.8855L18.954 34.8698L18.9693 33.8386L18.9795 32.8125H18.8264C18.7448 32.8125 18.6733 32.7917 18.6733 32.7657C18.6733 32.7396 18.5407 32.7084 18.3825 32.698C18.2244 32.6823 18.0815 32.6459 18.0713 32.6146C18.0611 32.573 17.9131 32.5521 17.6733 32.5521C17.454 32.5521 17.2958 32.5313 17.2958 32.5C17.2958 32.4688 17.0152 32.448 16.556 32.448C16.0968 32.448 15.8162 32.4688 15.8162 32.5Z" fill="url(#paint9_linear_18_534)"/>
<path d="M22.347 32.5C22.347 32.5261 22.2704 32.5521 22.1735 32.5521C22.0663 32.5521 21.9898 32.5834 21.9694 32.6302C21.9541 32.6719 21.8929 32.7084 21.8368 32.7084C21.7806 32.7084 21.7347 32.7292 21.7347 32.7604C21.7347 32.7865 21.6888 32.8125 21.6327 32.8125C21.5714 32.8125 21.4745 32.8698 21.4082 32.9427C21.3419 33.0157 21.25 33.0729 21.2041 33.0729C21.1582 33.0729 21.1225 33.0938 21.1225 33.125C21.1225 33.1511 21.0868 33.1771 21.0459 33.1771C21.0051 33.1771 20.9694 33.2136 20.9694 33.2552C20.9694 33.2969 20.9439 33.3334 20.9133 33.3334C20.8419 33.3334 20.7143 33.4636 20.7143 33.5365C20.7143 33.5677 20.6888 33.5938 20.6582 33.5938C20.5766 33.5938 20.4643 33.7552 20.4592 33.8646C20.4592 33.9167 20.4388 33.9584 20.4133 33.9584C20.3878 33.9584 20.3521 34.0157 20.3368 34.0886C20.3163 34.1615 20.2806 34.2188 20.2551 34.2188C20.2245 34.2188 20.2041 34.3594 20.2041 34.5313C20.2041 34.7032 20.2245 34.8438 20.25 34.8438C20.2755 34.8438 20.3112 34.9011 20.3266 34.974C20.347 35.0469 20.3827 35.1042 20.4082 35.1042C20.4388 35.1042 20.4592 35.1302 20.4592 35.1615C20.4592 35.2344 20.5868 35.3646 20.6582 35.3646C20.6888 35.3646 20.7143 35.4011 20.7143 35.4427C20.7143 35.4844 20.7398 35.5209 20.7653 35.5209C20.7959 35.5209 20.8776 35.5782 20.949 35.6511C21.0204 35.724 21.1021 35.7813 21.1378 35.7813C21.1735 35.7813 21.2449 35.8386 21.2959 35.9115C21.347 35.9844 21.4337 36.0417 21.4847 36.0417C21.5408 36.0417 21.5817 36.0625 21.5817 36.0938C21.5817 36.1198 21.6174 36.1459 21.6582 36.1459C21.699 36.1459 21.7347 36.1667 21.7347 36.1979C21.7347 36.224 21.7908 36.2604 21.8623 36.2813C21.9337 36.2969 21.9898 36.3334 21.9898 36.3594C21.9898 36.3854 22.0255 36.4063 22.0663 36.4063C22.1123 36.4063 22.199 36.4636 22.2653 36.5365C22.3317 36.6094 22.4235 36.6667 22.4694 36.6667C22.5153 36.6667 22.6174 36.724 22.6939 36.7969C22.7704 36.8698 22.8521 36.9271 22.8725 36.9271C22.949 36.9271 23.2143 37.2292 23.2245 37.3282C23.2449 37.6198 23.2143 37.7084 23.0868 37.7084C23.0153 37.7084 22.9592 37.7292 22.9592 37.7604C22.9592 37.7865 22.9031 37.8125 22.8317 37.8125C22.7602 37.8125 22.7041 37.7865 22.7041 37.7604C22.7041 37.7292 22.6021 37.7084 22.4796 37.7084C22.3266 37.7084 22.2449 37.6823 22.2245 37.6302C22.2092 37.5886 22.148 37.5521 22.0919 37.5521C22.0357 37.5521 21.9898 37.5261 21.9898 37.5C21.9898 37.4688 21.9643 37.4479 21.9388 37.4479C21.8878 37.4479 21.8266 37.4063 21.6582 37.2552C21.6225 37.2188 21.5663 37.1875 21.5357 37.1875C21.5051 37.1875 21.4796 37.1615 21.4796 37.1302C21.4796 37.099 21.449 37.0417 21.4184 37.0052C21.2653 36.8334 21.2245 36.7709 21.2245 36.7188C21.2245 36.6927 21.1939 36.6667 21.1531 36.6667C21.1123 36.6667 21.0714 36.6459 21.0612 36.6198C21.0561 36.5938 20.8623 36.5625 20.6378 36.5573L20.2296 36.5469L20.2143 37.6198L20.2041 38.6927L20.3521 38.7761C20.4388 38.8177 20.597 38.8542 20.7143 38.8542C20.8266 38.8542 20.9184 38.875 20.9184 38.9063C20.9184 38.9323 21.0306 38.9584 21.1633 38.9584C21.301 38.9584 21.5255 38.9948 21.6633 39.0365C22.0255 39.1459 23.7347 39.1511 23.8266 39.0365C23.8623 38.9948 23.9439 38.9584 24.0102 38.9584C24.0766 38.9584 24.1327 38.9323 24.1327 38.9063C24.1327 38.875 24.1786 38.8542 24.2398 38.8542C24.2959 38.8542 24.3776 38.8229 24.4133 38.7917C24.5919 38.625 24.6429 38.5938 24.7194 38.5938C24.8368 38.5938 25.7041 37.6927 25.7449 37.5313C25.7602 37.4532 25.7959 37.3802 25.8214 37.3646C25.8827 37.3282 25.8776 36.8386 25.8163 36.7969C25.7908 36.7813 25.7653 36.7188 25.7653 36.6615C25.7653 36.6042 25.7296 36.5469 25.6888 36.5313C25.648 36.5104 25.6123 36.4532 25.6123 36.4011C25.6123 36.349 25.5766 36.3021 25.5357 36.3021C25.4949 36.3021 25.4592 36.2657 25.4592 36.224C25.4592 36.1823 25.4133 36.1459 25.3572 36.1459C25.301 36.1459 25.2551 36.1198 25.2551 36.0938C25.2551 36.0625 25.2194 36.0417 25.1786 36.0417C25.1378 36.0417 25.1021 36.0157 25.1021 35.9844C25.1021 35.9063 24.9898 35.8021 24.8572 35.7604C24.7959 35.7396 24.7449 35.6979 24.7449 35.6719C24.7449 35.6459 24.7092 35.625 24.6684 35.625C24.6276 35.625 24.5919 35.599 24.5919 35.5729C24.5919 35.5417 24.5459 35.5209 24.4949 35.5209C24.4439 35.5209 24.3878 35.4844 24.3674 35.4427C24.3521 35.4011 24.3061 35.3646 24.2602 35.3646C24.2194 35.3646 24.1837 35.3386 24.1837 35.3125C24.1837 35.2813 24.1378 35.2604 24.0817 35.2604C24.0255 35.2604 23.9796 35.2396 23.9796 35.2084C23.9796 35.1823 23.9235 35.1459 23.8521 35.125C23.7806 35.1094 23.7245 35.0729 23.7245 35.0469C23.7245 35.0209 23.699 35 23.6684 35C23.6378 35 23.5817 34.9688 23.5459 34.9323C23.3776 34.7813 23.3163 34.7396 23.2653 34.7396C23.2398 34.7396 23.2143 34.7136 23.2143 34.6875C23.2143 34.6563 23.1837 34.6354 23.148 34.6354C23.0357 34.6354 22.8572 34.4479 22.8572 34.3334C22.8572 34.2761 22.8266 34.2136 22.7959 34.1979C22.7449 34.1719 22.7449 34.1615 22.7959 34.1354C22.8266 34.1198 22.8572 34.0469 22.8572 33.9792C22.8572 33.8594 22.8674 33.8542 23.2398 33.8542C23.4592 33.8542 23.6225 33.875 23.6225 33.9063C23.6225 33.9323 23.6684 33.9584 23.7245 33.9584C23.7806 33.9584 23.8419 33.9948 23.8572 34.0365C23.8776 34.0782 23.9337 34.1146 23.9847 34.1146C24.0357 34.1146 24.0817 34.1354 24.0817 34.1667C24.0817 34.1927 24.1174 34.2188 24.1582 34.2188C24.199 34.2188 24.2347 34.2448 24.2347 34.2761C24.2347 34.349 24.3623 34.4792 24.4337 34.4792C24.4643 34.4792 24.4898 34.5261 24.4898 34.5834C24.4898 34.6407 24.5306 34.7344 24.5766 34.7917C24.6531 34.8802 24.7296 34.8959 25.0561 34.8959C25.2755 34.8959 25.4847 34.8802 25.5306 34.8646C25.6021 34.8386 25.6123 34.6979 25.6123 33.8542C25.6123 32.8073 25.6123 32.8125 25.3521 32.8125C25.301 32.8125 25.2551 32.7865 25.2551 32.7604C25.2551 32.7292 25.148 32.7084 25.0153 32.7084C24.8776 32.7084 24.7245 32.6719 24.6735 32.6302C24.6072 32.5782 24.449 32.5521 24.199 32.5521C23.9847 32.5521 23.8266 32.5313 23.8266 32.5C23.8266 32.4688 23.5459 32.4479 23.0868 32.4479C22.6276 32.4479 22.347 32.4688 22.347 32.5Z" fill="url(#paint10_linear_18_534)"/>
<defs>
<linearGradient id="paint0_linear_18_534" x1="15" y1="21.1459" x2="15" y2="0.886095" gradientUnits="userSpaceOnUse">
<stop stop-color="#FEE106"/>
<stop offset="1" stop-color="#F9AB15"/>
</linearGradient>
<linearGradient id="paint1_linear_18_534" x1="8.41192" y1="11.7969" x2="8.41192" y2="9.63527" gradientUnits="userSpaceOnUse">
<stop stop-color="#FEE106"/>
<stop offset="1" stop-color="#F9AB15"/>
</linearGradient>
<linearGradient id="paint2_linear_18_534" x1="19.4643" y1="12.0312" x2="19.4643" y2="10.5208" gradientUnits="userSpaceOnUse">
<stop stop-color="#FEE106"/>
<stop offset="1" stop-color="#F9AB15"/>
</linearGradient>
<linearGradient id="paint3_linear_18_534" x1="15" y1="25.3983" x2="15" y2="16.6666" gradientUnits="userSpaceOnUse">
<stop stop-color="#FEE106"/>
<stop offset="1" stop-color="#F9AB15"/>
</linearGradient>
<linearGradient id="paint4_linear_18_534" x1="18.4443" y1="19.6382" x2="18.4443" y2="18.3334" gradientUnits="userSpaceOnUse">
<stop stop-color="#FEE106"/>
<stop offset="1" stop-color="#F9AB15"/>
</linearGradient>
<linearGradient id="paint5_linear_18_534" x1="18.4701" y1="22.0312" x2="18.4701" y2="20.6196" gradientUnits="userSpaceOnUse">
<stop stop-color="#FEE106"/>
<stop offset="1" stop-color="#F9AB15"/>
</linearGradient>
<linearGradient id="paint6_linear_18_534" x1="16.6471" y1="23.8541" x2="16.6471" y2="22.5524" gradientUnits="userSpaceOnUse">
<stop stop-color="#FEE106"/>
<stop offset="1" stop-color="#F9AB15"/>
</linearGradient>
<linearGradient id="paint7_linear_18_534" x1="14.6902" y1="25.1041" x2="14.6902" y2="24.1145" gradientUnits="userSpaceOnUse">
<stop stop-color="#FEE106"/>
<stop offset="1" stop-color="#F9AB15"/>
</linearGradient>
<linearGradient id="paint8_linear_18_534" x1="7.60203" y1="39.2188" x2="7.60203" y2="29.375" gradientUnits="userSpaceOnUse">
<stop stop-color="#FEE106"/>
<stop offset="1" stop-color="#F9AB15"/>
</linearGradient>
<linearGradient id="paint9_linear_18_534" x1="16.4826" y1="39.1224" x2="16.4826" y2="32.448" gradientUnits="userSpaceOnUse">
<stop stop-color="#FEE106"/>
<stop offset="1" stop-color="#F9AB15"/>
</linearGradient>
<linearGradient id="paint10_linear_18_534" x1="23.0345" y1="39.1205" x2="23.0345" y2="32.4479" gradientUnits="userSpaceOnUse">
<stop stop-color="#FEE106"/>
<stop offset="1" stop-color="#F9AB15"/>
</linearGradient>
</defs>
</svg>
