<svg width="14" height="14" viewBox="0 0 14 14" fill="none" xmlns="http://www.w3.org/2000/svg">
<path d="M6.373 9.53751L9.62508 6.28543L8.998 5.65835L6.373 8.28335L5.00216 6.91251L4.37508 7.5396L6.373 9.53751ZM6.9855 12.8042C6.26605 12.8042 5.58793 12.6681 4.95112 12.3958C4.31432 12.1236 3.76015 11.7517 3.28862 11.2802C2.8171 10.8087 2.44279 10.2545 2.16571 9.61772C1.88862 8.98092 1.75008 8.29793 1.75008 7.56876C1.75008 6.84932 1.88862 6.17119 2.16571 5.53439C2.44279 4.89758 2.8171 4.34098 3.28862 3.8646C3.76015 3.38821 4.31432 3.0139 4.95112 2.74168C5.58793 2.46946 6.26605 2.33335 6.9855 2.33335C7.70494 2.33335 8.38307 2.46946 9.01987 2.74168C9.65668 3.0139 10.2133 3.38821 10.6897 3.8646C11.1661 4.34098 11.5404 4.89758 11.8126 5.53439C12.0848 6.17119 12.2209 6.84932 12.2209 7.56876C12.2209 8.29793 12.0848 8.98092 11.8126 9.61772C11.5404 10.2545 11.1661 10.8087 10.6897 11.2802C10.2133 11.7517 9.65668 12.1236 9.01987 12.3958C8.38307 12.6681 7.70494 12.8042 6.9855 12.8042ZM3.12091 1.35626L3.73341 1.96876L1.34175 4.27293L0.729248 3.66043L3.12091 1.35626ZM10.8501 1.35626L13.2417 3.66043L12.6292 4.27293L10.2376 1.96876L10.8501 1.35626ZM6.9855 11.9292C8.20078 11.9292 9.23133 11.5063 10.0772 10.6604C10.923 9.8146 11.3459 8.78404 11.3459 7.56876C11.3459 6.35349 10.923 5.32293 10.0772 4.4771C9.23133 3.63126 8.20078 3.20835 6.9855 3.20835C5.77022 3.20835 4.73967 3.63126 3.89383 4.4771C3.048 5.32293 2.62508 6.35349 2.62508 7.56876C2.62508 8.78404 3.048 9.8146 3.89383 10.6604C4.73967 11.5063 5.77022 11.9292 6.9855 11.9292Z" fill="url(#paint0_linear_79_78)"/>
<defs>
<linearGradient id="paint0_linear_79_78" x1="6.9855" y1="1.35626" x2="6.9855" y2="12.8042" gradientUnits="userSpaceOnUse">
<stop stop-color="#FEE106"/>
<stop offset="1" stop-color="#F9AB15"/>
</linearGradient>
</defs>
</svg>
