<svg width="14" height="14" viewBox="0 0 14 14" fill="none" xmlns="http://www.w3.org/2000/svg">
<path d="M6.35825 8.93957L9.68325 5.61457L9.07075 5.01665L6.402 7.6854L4.92908 6.21249L4.28742 6.85415L6.35825 8.93957ZM6.99992 12.8187C5.63881 12.4785 4.52075 11.6885 3.64575 10.4489C2.77075 9.20936 2.33325 7.85068 2.33325 6.3729V2.90207L6.99992 1.15207L11.6666 2.90207V6.3729C11.6666 7.85068 11.2291 9.20936 10.3541 10.4489C9.47908 11.6885 8.36103 12.4785 6.99992 12.8187ZM6.99992 11.9146C8.11797 11.5451 9.02943 10.8476 9.73429 9.82186C10.4392 8.79617 10.7916 7.64651 10.7916 6.3729V3.51457L6.99992 2.0854L3.20825 3.51457V6.3729C3.20825 7.64651 3.56068 8.79617 4.26554 9.82186C4.9704 10.8476 5.88186 11.5451 6.99992 11.9146Z" fill="url(#paint0_linear_79_82)"/>
<defs>
<linearGradient id="paint0_linear_79_82" x1="6.99992" y1="1.15207" x2="6.99992" y2="12.8187" gradientUnits="userSpaceOnUse">
<stop stop-color="#FEE106"/>
<stop offset="1" stop-color="#F9AB15"/>
</linearGradient>
</defs>
</svg>
